<?xml version="1.0" encoding="UTF-8" standalone="no"?>
<!-- Created with Inkscape (http://www.inkscape.org/) -->

<svg
   xmlns:dc="http://purl.org/dc/elements/1.1/"
   xmlns:cc="http://creativecommons.org/ns#"
   xmlns:rdf="http://www.w3.org/1999/02/22-rdf-syntax-ns#"
   xmlns:svg="http://www.w3.org/2000/svg"
   xmlns="http://www.w3.org/2000/svg"
   xmlns:sodipodi="http://sodipodi.sourceforge.net/DTD/sodipodi-0.dtd"
   xmlns:inkscape="http://www.inkscape.org/namespaces/inkscape"
   width="231.39453"
   height="100.21787"
   id="svg2"
   version="1.1"
   inkscape:version="0.48.4 r9939"
   sodipodi:docname="ccd_aabb.svg">
  <defs
     id="defs4">
    <marker
       inkscape:stockid="Arrow1Mend"
       orient="auto"
       refY="0"
       refX="0"
       id="Arrow1Mend"
       style="overflow:visible">
      <path
         id="path3929"
         d="M 0,0 5,-5 -12.5,0 5,5 0,0 z"
         style="fill-rule:evenodd;stroke:#000000;stroke-width:1pt"
         transform="matrix(-0.4,0,0,-0.4,-4,0)"
         inkscape:connector-curvature="0" />
    </marker>
    <marker
       inkscape:stockid="Arrow1Lend"
       orient="auto"
       refY="0"
       refX="0"
       id="Arrow1Lend"
       style="overflow:visible">
      <path
         id="path3923"
         d="M 0,0 5,-5 -12.5,0 5,5 0,0 z"
         style="fill-rule:evenodd;stroke:#000000;stroke-width:1pt"
         transform="matrix(-0.8,0,0,-0.8,-10,0)"
         inkscape:connector-curvature="0" />
    </marker>
    <marker
       inkscape:stockid="Arrow1Mend"
       orient="auto"
       refY="0"
       refX="0"
       id="Arrow1Mend-4"
       style="overflow:visible">
      <path
         inkscape:connector-curvature="0"
         id="path3929-8"
         d="M 0,0 5,-5 -12.5,0 5,5 0,0 z"
         style="fill-rule:evenodd;stroke:#000000;stroke-width:1pt"
         transform="matrix(-0.4,0,0,-0.4,-4,0)" />
    </marker>
    <marker
       inkscape:stockid="Arrow1Mend"
       orient="auto"
       refY="0"
       refX="0"
       id="Arrow1Mend-4-2"
       style="overflow:visible">
      <path
         inkscape:connector-curvature="0"
         id="path3929-8-4"
         d="M 0,0 5,-5 -12.5,0 5,5 0,0 z"
         style="fill-rule:evenodd;stroke:#000000;stroke-width:1pt"
         transform="matrix(-0.4,0,0,-0.4,-4,0)" />
    </marker>
    <marker
       inkscape:stockid="Arrow1Mend"
       orient="auto"
       refY="0"
       refX="0"
       id="marker5892"
       style="overflow:visible">
      <path
         inkscape:connector-curvature="0"
         id="path5894"
         d="M 0,0 5,-5 -12.5,0 5,5 0,0 z"
         style="fill-rule:evenodd;stroke:#000000;stroke-width:1pt"
         transform="matrix(-0.4,0,0,-0.4,-4,0)" />
    </marker>
    <marker
       inkscape:stockid="Arrow1Mend"
       orient="auto"
       refY="0"
       refX="0"
       id="Arrow1Mend-5"
       style="overflow:visible">
      <path
         inkscape:connector-curvature="0"
         id="path3929-5"
         d="M 0,0 5,-5 -12.5,0 5,5 0,0 z"
         style="fill-rule:evenodd;stroke:#000000;stroke-width:1pt"
         transform="matrix(-0.4,0,0,-0.4,-4,0)" />
    </marker>
    <marker
       inkscape:stockid="Arrow1Mend"
       orient="auto"
       refY="0"
       refX="0"
       id="Arrow1Mend-4-3"
       style="overflow:visible">
      <path
         inkscape:connector-curvature="0"
         id="path3929-8-2"
         d="M 0,0 5,-5 -12.5,0 5,5 0,0 z"
         style="fill-rule:evenodd;stroke:#000000;stroke-width:1pt"
         transform="matrix(-0.4,0,0,-0.4,-4,0)" />
    </marker>
    <marker
       inkscape:stockid="Arrow1Mend"
       orient="auto"
       refY="0"
       refX="0"
       id="Arrow1Mend-4-3-8"
       style="overflow:visible">
      <path
         inkscape:connector-curvature="0"
         id="path3929-8-2-5"
         d="M 0,0 5,-5 -12.5,0 5,5 0,0 z"
         style="fill-rule:evenodd;stroke:#000000;stroke-width:1pt"
         transform="matrix(-0.4,0,0,-0.4,-4,0)" />
    </marker>
    <marker
       inkscape:stockid="Arrow1Mend"
       orient="auto"
       refY="0"
       refX="0"
       id="Arrow1Mend-4-7"
       style="overflow:visible">
      <path
         inkscape:connector-curvature="0"
         id="path3929-8-6"
         d="M 0,0 5,-5 -12.5,0 5,5 0,0 z"
         style="fill-rule:evenodd;stroke:#000000;stroke-width:1pt"
         transform="matrix(-0.4,0,0,-0.4,-4,0)" />
    </marker>
    <marker
       inkscape:stockid="Arrow1Mend"
       orient="auto"
       refY="0"
       refX="0"
       id="marker6206"
       style="overflow:visible">
      <path
         inkscape:connector-curvature="0"
         id="path6208"
         d="M 0,0 5,-5 -12.5,0 5,5 0,0 z"
         style="fill-rule:evenodd;stroke:#000000;stroke-width:1pt"
         transform="matrix(-0.4,0,0,-0.4,-4,0)" />
    </marker>
    <marker
       inkscape:stockid="Arrow1Mend"
       orient="auto"
       refY="0"
       refX="0"
       id="Arrow1Mend-1"
       style="overflow:visible">
      <path
         inkscape:connector-curvature="0"
         id="path3929-89"
         d="M 0,0 5,-5 -12.5,0 5,5 0,0 z"
         style="fill-rule:evenodd;stroke:#000000;stroke-width:1pt"
         transform="matrix(-0.4,0,0,-0.4,-4,0)" />
    </marker>
    <marker
       inkscape:stockid="Arrow1Mend"
       orient="auto"
       refY="0"
       refX="0"
       id="Arrow1Mend-4-3-7"
       style="overflow:visible">
      <path
         inkscape:connector-curvature="0"
         id="path3929-8-2-4"
         d="M 0,0 5,-5 -12.5,0 5,5 0,0 z"
         style="fill-rule:evenodd;stroke:#000000;stroke-width:1pt"
         transform="matrix(-0.4,0,0,-0.4,-4,0)" />
    </marker>
    <marker
       inkscape:stockid="Arrow1Mend"
       orient="auto"
       refY="0"
       refX="0"
       id="Arrow1Mend-4-27"
       style="overflow:visible">
      <path
         inkscape:connector-curvature="0"
         id="path3929-8-7"
         d="M 0,0 5,-5 -12.5,0 5,5 0,0 z"
         style="fill-rule:evenodd;stroke:#000000;stroke-width:1pt"
         transform="matrix(-0.4,0,0,-0.4,-4,0)" />
    </marker>
    <marker
       inkscape:stockid="Arrow1Mend"
       orient="auto"
       refY="0"
       refX="0"
       id="marker6206-9"
       style="overflow:visible">
      <path
         inkscape:connector-curvature="0"
         id="path6208-3"
         d="M 0,0 5,-5 -12.5,0 5,5 0,0 z"
         style="fill-rule:evenodd;stroke:#000000;stroke-width:1pt"
         transform="matrix(-0.4,0,0,-0.4,-4,0)" />
    </marker>
    <marker
       inkscape:stockid="Arrow1Mend"
       orient="auto"
       refY="0"
       refX="0"
       id="Arrow1Mend-19"
       style="overflow:visible">
      <path
         inkscape:connector-curvature="0"
         id="path3929-86"
         d="M 0,0 5,-5 -12.5,0 5,5 0,0 z"
         style="fill-rule:evenodd;stroke:#000000;stroke-width:1pt"
         transform="matrix(-0.4,0,0,-0.4,-4,0)" />
    </marker>
    <marker
       inkscape:stockid="Arrow1Mend"
       orient="auto"
       refY="0"
       refX="0"
       id="Arrow1Mend-19-2"
       style="overflow:visible">
      <path
         inkscape:connector-curvature="0"
         id="path3929-86-6"
         d="M 0,0 5,-5 -12.5,0 5,5 0,0 z"
         style="fill-rule:evenodd;stroke:#000000;stroke-width:1pt"
         transform="matrix(-0.4,0,0,-0.4,-4,0)" />
    </marker>
    <marker
       inkscape:stockid="Arrow1Mend"
       orient="auto"
       refY="0"
       refX="0"
       id="marker6765"
       style="overflow:visible">
      <path
         inkscape:connector-curvature="0"
         id="path6767"
         d="M 0,0 5,-5 -12.5,0 5,5 0,0 z"
         style="fill-rule:evenodd;stroke:#000000;stroke-width:1pt"
         transform="matrix(-0.4,0,0,-0.4,-4,0)" />
    </marker>
    <marker
       inkscape:stockid="Arrow1Mend"
       orient="auto"
       refY="0"
       refX="0"
       id="Arrow1Mend-4-0"
       style="overflow:visible">
      <path
         inkscape:connector-curvature="0"
         id="path3929-8-1"
         d="M 0,0 5,-5 -12.5,0 5,5 0,0 z"
         style="fill-rule:evenodd;stroke:#000000;stroke-width:1pt"
         transform="matrix(-0.4,0,0,-0.4,-4,0)" />
    </marker>
    <marker
       inkscape:stockid="Arrow1Mend"
       orient="auto"
       refY="0"
       refX="0"
       id="Arrow1Mend-6"
       style="overflow:visible">
      <path
         inkscape:connector-curvature="0"
         id="path3929-57"
         d="M 0,0 5,-5 -12.5,0 5,5 0,0 z"
         style="fill-rule:evenodd;stroke:#000000;stroke-width:1pt"
         transform="matrix(-0.4,0,0,-0.4,-4,0)" />
    </marker>
    <marker
       inkscape:stockid="Arrow1Mend"
       orient="auto"
       refY="0"
       refX="0"
       id="Arrow1Mend-19-7"
       style="overflow:visible">
      <path
         inkscape:connector-curvature="0"
         id="path3929-86-3"
         d="M 0,0 5,-5 -12.5,0 5,5 0,0 z"
         style="fill-rule:evenodd;stroke:#000000;stroke-width:1pt"
         transform="matrix(-0.4,0,0,-0.4,-4,0)" />
    </marker>
    <marker
       inkscape:stockid="Arrow1Mend"
       orient="auto"
       refY="0"
       refX="0"
       id="marker6765-3"
       style="overflow:visible">
      <path
         inkscape:connector-curvature="0"
         id="path6767-5"
         d="M 0,0 5,-5 -12.5,0 5,5 0,0 z"
         style="fill-rule:evenodd;stroke:#000000;stroke-width:1pt"
         transform="matrix(-0.4,0,0,-0.4,-4,0)" />
    </marker>
    <marker
       inkscape:stockid="Arrow1Mend"
       orient="auto"
       refY="0"
       refX="0"
       id="Arrow1Mend-4-9"
       style="overflow:visible">
      <path
         inkscape:connector-curvature="0"
         id="path3929-8-9"
         d="M 0,0 5,-5 -12.5,0 5,5 0,0 z"
         style="fill-rule:evenodd;stroke:#000000;stroke-width:1pt"
         transform="matrix(-0.4,0,0,-0.4,-4,0)" />
    </marker>
    <marker
       inkscape:stockid="Arrow1Mend"
       orient="auto"
       refY="0"
       refX="0"
       id="Arrow1Mend-8"
       style="overflow:visible">
      <path
         inkscape:connector-curvature="0"
         id="path3929-1"
         d="M 0,0 5,-5 -12.5,0 5,5 0,0 z"
         style="fill-rule:evenodd;stroke:#000000;stroke-width:1pt"
         transform="matrix(-0.4,0,0,-0.4,-4,0)" />
    </marker>
    <marker
       inkscape:stockid="Arrow1Mend"
       orient="auto"
       refY="0"
       refX="0"
       id="Arrow1Mend-17"
       style="overflow:visible">
      <path
         id="path3929-4"
         d="M 0,0 5,-5 -12.5,0 5,5 0,0 z"
         style="fill-rule:evenodd;stroke:#000000;stroke-width:1pt"
         transform="matrix(-0.4,0,0,-0.4,-4,0)"
         inkscape:connector-curvature="0" />
    </marker>
    <marker
       inkscape:stockid="Arrow1Mend"
       orient="auto"
       refY="0"
       refX="0"
       id="Arrow1Mend-9"
       style="overflow:visible">
      <path
         id="path3929-48"
         d="M 0,0 5,-5 -12.5,0 5,5 0,0 z"
         style="fill-rule:evenodd;stroke:#000000;stroke-width:1pt"
         transform="matrix(-0.4,0,0,-0.4,-4,0)"
         inkscape:connector-curvature="0" />
    </marker>
  </defs>
  <sodipodi:namedview
     id="base"
     pagecolor="#ffffff"
     bordercolor="#666666"
     borderopacity="1.0"
     inkscape:pageopacity="0.0"
     inkscape:pageshadow="2"
     inkscape:zoom="4.0000001"
     inkscape:cx="92.942611"
     inkscape:cy="44.98237"
     inkscape:document-units="px"
     inkscape:current-layer="layer1"
     showgrid="true"
     inkscape:snap-global="false"
     inkscape:window-width="1680"
     inkscape:window-height="987"
     inkscape:window-x="1358"
     inkscape:window-y="-8"
     inkscape:window-maximized="1"
     fit-margin-top="0"
     fit-margin-left="0"
     fit-margin-right="0"
     fit-margin-bottom="0"
     inkscape:snap-bbox="true">
    <inkscape:grid
       type="xygrid"
       id="grid3042"
       empspacing="5"
       visible="true"
       enabled="true"
       snapvisiblegridlinesonly="true"
       originx="-405.10547px"
       originy="-926.28213px" />
  </sodipodi:namedview>
  <metadata
     id="metadata7">
    <rdf:RDF>
      <cc:Work
         rdf:about="">
        <dc:format>image/svg+xml</dc:format>
        <dc:type
           rdf:resource="http://purl.org/dc/dcmitype/StillImage" />
        <dc:title />
      </cc:Work>
    </rdf:RDF>
  </metadata>
  <g
     inkscape:label="Layer 1"
     inkscape:groupmode="layer"
     id="layer1"
     transform="translate(-405.10547,-25.862174)">
    <rect
       style="fill:none;stroke:#000000;stroke-width:1.20000005;stroke-miterlimit:4;stroke-opacity:1;stroke-dasharray:none;stroke-dashoffset:0"
       id="rect6988"
       width="105"
       height="50.5"
       x="431.20605"
       y="52.362183" />
    <path
       transform="translate(161.71216,0.40380552)"
       sodipodi:type="arc"
       style="fill:#000000;fill-opacity:1;stroke:#000000;stroke-width:0.40000001;stroke-miterlimit:4;stroke-opacity:1;stroke-dasharray:none;stroke-dashoffset:0"
       id="path3090-2"
       sodipodi:cx="312.5"
       sodipodi:cy="54.862183"
       sodipodi:rx="2.5"
       sodipodi:ry="2.5"
       d="m 315,54.862183 c 0,1.380711 -1.11929,2.5 -2.5,2.5 -1.38071,0 -2.5,-1.119289 -2.5,-2.5 0,-1.380712 1.11929,-2.5 2.5,-2.5 1.38071,0 2.5,1.119288 2.5,2.5 z" />
    <path
       transform="translate(221.88894,25.431534)"
       sodipodi:type="arc"
       style="fill:#000000;fill-opacity:1;stroke:#000000;stroke-width:0.40000001;stroke-miterlimit:4;stroke-opacity:1;stroke-dasharray:none;stroke-dashoffset:0"
       id="path3090-1-6"
       sodipodi:cx="312.5"
       sodipodi:cy="54.862183"
       sodipodi:rx="2.5"
       sodipodi:ry="2.5"
       d="m 315,54.862183 c 0,1.380711 -1.11929,2.5 -2.5,2.5 -1.38071,0 -2.5,-1.119289 -2.5,-2.5 0,-1.380712 1.11929,-2.5 2.5,-2.5 1.38071,0 2.5,1.119288 2.5,2.5 z" />
    <rect
       style="fill:none;stroke:#000000;stroke-width:1.21056306;stroke-miterlimit:4;stroke-opacity:1;stroke-dasharray:none;stroke-dashoffset:0"
       id="rect6992"
       width="55.989437"
       height="34.989437"
       x="550.46136"
       y="63.367462" />
    <path
       transform="translate(291.16927,11.421574)"
       sodipodi:type="arc"
       style="fill:#000000;fill-opacity:1;stroke:#000000;stroke-width:0.40000001;stroke-miterlimit:4;stroke-opacity:1;stroke-dasharray:none;stroke-dashoffset:0"
       id="path3090-7-6"
       sodipodi:cx="312.5"
       sodipodi:cy="54.862183"
       sodipodi:rx="2.5"
       sodipodi:ry="2.5"
       d="m 315,54.862183 c 0,1.380711 -1.11929,2.5 -2.5,2.5 -1.38071,0 -2.5,-1.119289 -2.5,-2.5 0,-1.380712 1.11929,-2.5 2.5,-2.5 1.38071,0 2.5,1.119288 2.5,2.5 z" />
    <path
       transform="translate(121.697,30.550253)"
       sodipodi:type="arc"
       style="fill:#000000;fill-opacity:1;stroke:#000000;stroke-width:0.40000001;stroke-miterlimit:4;stroke-opacity:1;stroke-dasharray:none;stroke-dashoffset:0"
       id="path3090-4-03"
       sodipodi:cx="312.5"
       sodipodi:cy="54.862183"
       sodipodi:rx="2.5"
       sodipodi:ry="2.5"
       d="m 315,54.862183 c 0,1.380711 -1.11929,2.5 -2.5,2.5 -1.38071,0 -2.5,-1.119289 -2.5,-2.5 0,-1.380712 1.11929,-2.5 2.5,-2.5 1.38071,0 2.5,1.119288 2.5,2.5 z" />
    <path
       transform="translate(201.96216,10.653806)"
       sodipodi:type="arc"
       style="fill:#000000;fill-opacity:1;stroke:#000000;stroke-width:0.40000001;stroke-miterlimit:4;stroke-opacity:1;stroke-dasharray:none;stroke-dashoffset:0"
       id="path3090-0-8"
       sodipodi:cx="312.5"
       sodipodi:cy="54.862183"
       sodipodi:rx="2.5"
       sodipodi:ry="2.5"
       d="m 315,54.862183 c 0,1.380711 -1.11929,2.5 -2.5,2.5 -1.38071,0 -2.5,-1.119289 -2.5,-2.5 0,-1.380712 1.11929,-2.5 2.5,-2.5 1.38071,0 2.5,1.119288 2.5,2.5 z" />
    <path
       transform="translate(241.12377,41.50736)"
       sodipodi:type="arc"
       style="fill:#000000;fill-opacity:1;stroke:#000000;stroke-width:0.40000001;stroke-miterlimit:4;stroke-opacity:1;stroke-dasharray:none;stroke-dashoffset:0"
       id="path3090-9-0"
       sodipodi:cx="312.5"
       sodipodi:cy="54.862183"
       sodipodi:rx="2.5"
       sodipodi:ry="2.5"
       d="m 315,54.862183 c 0,1.380711 -1.11929,2.5 -2.5,2.5 -1.38071,0 -2.5,-1.119289 -2.5,-2.5 0,-1.380712 1.11929,-2.5 2.5,-2.5 1.38071,0 2.5,1.119288 2.5,2.5 z" />
    <path
       style="fill:none;stroke:#000000;stroke-width:1.20000005;stroke-linecap:butt;stroke-linejoin:miter;stroke-miterlimit:4;stroke-opacity:1;stroke-dasharray:none;stroke-dashoffset:0;marker-end:url(#Arrow1Mend)"
       d="m 473.71216,55.765989 -37,28"
       id="path3914-1"
       inkscape:connector-curvature="0" />
    <path
       style="fill:none;stroke:#000000;stroke-width:1px;stroke-linecap:butt;stroke-linejoin:miter;stroke-opacity:1;marker-start:none;marker-end:url(#Arrow1Mend-4)"
       d="m 603.96216,65.76599 -48,29.000001"
       id="path5318-2"
       inkscape:connector-curvature="0" />
    <path
       style="fill:#2a2aff;fill-opacity:1;fill-rule:nonzero;stroke:#2a2aff;opacity:0.48230088"
       d="m 30.383647,41.420485 c -0.06039,-0.103125 0.659675,-2.26875 1.600154,-4.8125 0.940479,-2.54375 1.714503,-4.428125 1.720053,-4.1875 0.0069,0.29731 0.210366,0.4375 0.635092,0.4375 0.5,0 0.625,-0.125 0.625,-0.625 0,-0.458332 -0.133333,-0.625 -0.5,-0.625 -0.275,0 -0.500597,-0.08437 -0.501328,-0.1875 -7.25e-4,-0.103125 2.041689,-5.772781 4.53871,-12.599237 L 43.041366,6.4095102 43.975004,6.2602155 c 0.520042,-0.083158 1.195071,-0.4249027 1.52379,-0.7714429 0.324583,-0.3421816 0.737932,-0.6240918 0.918553,-0.6264674 0.267918,-0.00352 31.736021,8.5779828 33.773686,9.2102508 0.507745,0.157548 -1.726198,1.46475 -14.25664,8.342343 -8.1723,4.485537 -15.156975,8.230376 -15.521498,8.321866 -0.364524,0.09149 -0.72363,0.32494 -0.798014,0.518783 -0.179688,0.46826 -0.650935,0.451927 -0.650935,-0.02256 0,-0.237675 -0.239264,-0.375 -0.653375,-0.375 -0.580403,0 -0.641359,0.08187 -0.545791,0.733015 0.106699,0.726988 0.03808,0.771195 -8.343088,5.375 -4.64787,2.553093 -8.558124,4.641985 -8.689455,4.641985 -0.13133,0 -0.288196,-0.08438 -0.34859,-0.1875 z m 6.580299,-9.1875 c 0,-0.5 -0.125,-0.625 -0.625,-0.625 -0.5,0 -0.625,0.125 -0.625,0.625 0,0.5 0.125,0.625 0.625,0.625 0.5,0 0.625,-0.125 0.625,-0.625 z m 2,-0.25 c 0,-0.5 -0.125,-0.625 -0.625,-0.625 -0.5,0 -0.625,0.125 -0.625,0.625 0,0.5 0.125,0.625 0.625,0.625 0.5,0 0.625,-0.125 0.625,-0.625 z m 2,0 c 0,-0.5 -0.125,-0.625 -0.625,-0.625 -0.5,0 -0.625,0.125 -0.625,0.625 0,0.5 0.125,0.625 0.625,0.625 0.5,0 0.625,-0.125 0.625,-0.625 z m 2,-0.25 c 0,-0.5 -0.125,-0.625 -0.625,-0.625 -0.5,0 -0.625,0.125 -0.625,0.625 0,0.5 0.125,0.625 0.625,0.625 0.5,0 0.625,-0.125 0.625,-0.625 z m 2,0 c 0,-0.5 -0.125,-0.625 -0.625,-0.625 -0.5,0 -0.625,0.125 -0.625,0.625 0,0.5 0.125,0.625 0.625,0.625 0.5,0 0.625,-0.125 0.625,-0.625 z m 2,-0.279157 c 0,-0.614778 -0.17405,-0.70523 -0.854553,-0.444095 -0.381826,0.14652 -0.541906,0.86846 -0.255971,1.154395 0.343458,0.343457 1.110524,-0.147165 1.110524,-0.7103 z"
       id="path3969"
       inkscape:connector-curvature="0"
       transform="translate(430.60605,51.762183)" />
    <path
       transform="translate(146.64109,40.459709)"
       sodipodi:type="arc"
       style="fill:#000000;fill-opacity:1;stroke:#000000;stroke-width:0.40000001;stroke-miterlimit:4;stroke-opacity:1;stroke-dasharray:none;stroke-dashoffset:0"
       id="path3090-0-1-5"
       sodipodi:cx="312.5"
       sodipodi:cy="54.862183"
       sodipodi:rx="2.5"
       sodipodi:ry="2.5"
       d="m 315,54.862183 c 0,1.380711 -1.11929,2.5 -2.5,2.5 -1.38071,0 -2.5,-1.119289 -2.5,-2.5 0,-1.380712 1.11929,-2.5 2.5,-2.5 1.38071,0 2.5,1.119288 2.5,2.5 z" />
    <path
       transform="translate(161.75766,45.405961)"
       sodipodi:type="arc"
       style="fill:#000000;fill-opacity:1;stroke:#000000;stroke-width:0.40000001;stroke-miterlimit:4;stroke-opacity:1;stroke-dasharray:none;stroke-dashoffset:0"
       id="path3090-0-6-0"
       sodipodi:cx="312.5"
       sodipodi:cy="54.862183"
       sodipodi:rx="2.5"
       sodipodi:ry="2.5"
       d="m 315,54.862183 c 0,1.380711 -1.11929,2.5 -2.5,2.5 -1.38071,0 -2.5,-1.119289 -2.5,-2.5 0,-1.380712 1.11929,-2.5 2.5,-2.5 1.38071,0 2.5,1.119288 2.5,2.5 z" />
    <path
       style="fill:none;stroke:#000000;stroke-width:1px;stroke-linecap:butt;stroke-linejoin:miter;stroke-opacity:1;marker-end:url(#Arrow1Mend-19)"
       d="m 458.71216,94.765989 13,3.999997"
       id="path6327-9"
       inkscape:connector-curvature="0" />
    <path
       style="fill:none;stroke:#000000;stroke-width:1px;stroke-linecap:butt;stroke-linejoin:miter;stroke-opacity:1;marker-end:url(#Arrow1Mend-19)"
       d="m 514.71216,65.765989 17,13"
       id="path6541-4"
       inkscape:connector-curvature="0" />
    <text
       xml:space="preserve"
       style="font-size:12px;font-style:normal;font-weight:normal;line-height:125%;letter-spacing:0px;word-spacing:0px;fill:#000000;fill-opacity:1;stroke:none;font-family:Sans"
       x="275"
       y="116.36218"
       id="text6994"
       sodipodi:linespacing="125%"><tspan
         sodipodi:role="line"
         id="tspan6996"
         x="275"
         y="116.36218" /></text>
    <text
       xml:space="preserve"
       style="font-size:12px;font-style:normal;font-weight:normal;line-height:125%;letter-spacing:0px;word-spacing:0px;fill:#000000;fill-opacity:1;stroke:none;font-family:Sans"
       x="270.46835"
       y="48.624107"
       id="text7006"
       sodipodi:linespacing="125%"><tspan
         sodipodi:role="line"
         id="tspan7008"
         x="270.46835"
         y="48.624107" /></text>
    <path
       style="fill:none;stroke:#000000;stroke-width:1px;stroke-linecap:butt;stroke-linejoin:miter;stroke-opacity:1"
       d="m 43.499999,3.3073595 -14.75,40.2499985 53.749999,-29.499999 z"
       id="path3059"
       inkscape:connector-curvature="0"
       transform="translate(430.60605,51.762183)" />
    <path
       style="fill:none;stroke:#000000;stroke-width:1;stroke-linecap:butt;stroke-linejoin:miter;stroke-miterlimit:4;stroke-opacity:1;stroke-dasharray:1, 1;stroke-dashoffset:0"
       d="M 3.7499999,34.057359 43.999999,48.807358 103.25,28.307359 z"
       id="path3061"
       inkscape:connector-curvature="0"
       transform="translate(430.60605,51.762183)" />
    <path
       style="fill:none;stroke:#000000;stroke-width:1.20000005;stroke-linecap:butt;stroke-linejoin:miter;stroke-miterlimit:4;stroke-opacity:1;stroke-dasharray:none;stroke-dashoffset:0;marker-end:url(#Arrow1Mend)"
       d="m 425,112.36217 210,0"
       id="path3914-1-0"
       inkscape:connector-curvature="0"
       sodipodi:nodetypes="cc" />
    <path
       style="fill:none;stroke:#000000;stroke-width:1.20000005;stroke-linecap:butt;stroke-linejoin:miter;stroke-miterlimit:4;stroke-opacity:1;stroke-dasharray:none;stroke-dashoffset:0;marker-end:url(#Arrow1Mend)"
       d="m 425,112.36217 0,-84.999996"
       id="path3914-1-0-8"
       inkscape:connector-curvature="0"
       sodipodi:nodetypes="cc" />
    <path
       style="fill:none;stroke:#000000;stroke-width:1px;stroke-linecap:butt;stroke-linejoin:miter;stroke-opacity:1"
       d="m -0.60605,58.599991 0,4"
       id="path3108"
       inkscape:connector-curvature="0"
       transform="translate(430.60605,51.762183)" />
    <path
       style="fill:none;stroke:#000000;stroke-width:1px;stroke-linecap:butt;stroke-linejoin:miter;stroke-opacity:1"
       d="m 106.39395,58.599991 0,4"
       id="path3110"
       inkscape:connector-curvature="0"
       transform="translate(430.60605,51.762183)" />
    <path
       style="fill:none;stroke:#000000;stroke-width:1px;stroke-linecap:butt;stroke-linejoin:miter;stroke-opacity:1"
       d="m 119.39395,58.599991 0,4"
       id="path3114"
       inkscape:connector-curvature="0"
       transform="translate(430.60605,51.762183)" />
    <path
       style="fill:none;stroke:#000000;stroke-width:1px;stroke-linecap:butt;stroke-linejoin:miter;stroke-opacity:1"
       d="m 176.39395,58.599991 0,4"
       id="path3116"
       inkscape:connector-curvature="0"
       transform="translate(430.60605,51.762183)" />
    <path
       style="fill:none;stroke:#000000;stroke-width:1px;stroke-linecap:butt;stroke-linejoin:miter;stroke-opacity:1"
       d="m -3.60605,51.599991 -4,0"
       id="path3118"
       inkscape:connector-curvature="0"
       transform="translate(430.60605,51.762183)"
       sodipodi:nodetypes="cc" />
    <path
       style="fill:none;stroke:#000000;stroke-width:1px;stroke-linecap:butt;stroke-linejoin:miter;stroke-opacity:1"
       d="m -3.60605,46.599991 -4,0"
       id="path3120"
       inkscape:connector-curvature="0"
       transform="translate(430.60605,51.762183)" />
    <path
       style="fill:none;stroke:#000000;stroke-width:1px;stroke-linecap:butt;stroke-linejoin:miter;stroke-opacity:1"
       d="m 427,62.799674 -4,0"
       id="path3118-2"
       inkscape:connector-curvature="0"
       sodipodi:nodetypes="cc" />
    <path
       style="fill:none;stroke:#000000;stroke-width:1px;stroke-linecap:butt;stroke-linejoin:miter;stroke-opacity:1"
       d="m 426.9375,52.362174 -4,0"
       id="path3118-2-4"
       inkscape:connector-curvature="0"
       sodipodi:nodetypes="cc" />
    <text
       xml:space="preserve"
       style="font-size:12px;font-style:normal;font-weight:normal;line-height:125%;letter-spacing:0px;word-spacing:0px;fill:#000000;fill-opacity:1;stroke:none;font-family:Sans"
       x="628.91211"
       y="123.58483"
       id="text3158"
       sodipodi:linespacing="125%"><tspan
         sodipodi:role="line"
         id="tspan3160"
         x="628.91211"
         y="123.58483">x</tspan></text>
    <text
       xml:space="preserve"
       style="font-size:12px;font-style:normal;font-weight:normal;line-height:125%;letter-spacing:0px;word-spacing:0px;fill:#000000;fill-opacity:1;stroke:none;font-family:Sans"
       x="417.10605"
       y="33.962189"
       id="text3162"
       sodipodi:linespacing="125%"><tspan
         sodipodi:role="line"
         id="tspan3164"
         x="417.10605"
         y="33.962189">y</tspan></text>
    <text
       xml:space="preserve"
       style="font-size:12px;font-style:normal;font-weight:normal;line-height:125%;letter-spacing:0px;word-spacing:0px;fill:#000000;fill-opacity:1;stroke:none;font-family:Sans"
       x="429.91211"
       y="122.36217"
       id="text3158-5"
       sodipodi:linespacing="125%"><tspan
         sodipodi:role="line"
         id="tspan3160-5"
         x="429.91211"
         y="122.36217">x<tspan
   style="font-size:65.00091553%;baseline-shift:sub"
   id="tspan3243">A</tspan><tspan
   style="font-size:65.00091553%;baseline-shift:sub"
   id="tspan3187">0</tspan></tspan></text>
    <text
       xml:space="preserve"
       style="font-size:12px;font-style:normal;font-weight:normal;line-height:125%;letter-spacing:0px;word-spacing:0px;fill:#000000;fill-opacity:1;stroke:none;font-family:Sans"
       x="520"
       y="122.36217"
       id="text3158-5-1"
       sodipodi:linespacing="125%"><tspan
         sodipodi:role="line"
         id="tspan3160-5-7"
         x="520"
         y="122.36217">x<tspan
   style="font-size:65.00091553%;baseline-shift:sub"
   id="tspan3241">A</tspan><tspan
   style="font-size:65.00091553%;baseline-shift:sub"
   id="tspan3187-1">1</tspan></tspan></text>
    <text
       xml:space="preserve"
       style="font-size:12px;font-style:normal;font-weight:normal;line-height:125%;letter-spacing:0px;word-spacing:0px;fill:#000000;fill-opacity:1;stroke:none;font-family:Sans"
       x="544.91211"
       y="123.58483"
       id="text3158-5-15"
       sodipodi:linespacing="125%"><tspan
         sodipodi:role="line"
         id="tspan3160-5-2"
         x="544.91211"
         y="123.58483">x<tspan
   style="font-size:65.00091553%;baseline-shift:sub"
   id="tspan3239">B</tspan><tspan
   style="font-size:65.00091553%;baseline-shift:sub"
   id="tspan3187-7">0</tspan></tspan></text>
    <text
       xml:space="preserve"
       style="font-size:12px;font-style:normal;font-weight:normal;line-height:125%;letter-spacing:0px;word-spacing:0px;fill:#000000;fill-opacity:1;stroke:none;font-family:Sans"
       x="594.91211"
       y="123.58483"
       id="text3158-5-6"
       sodipodi:linespacing="125%"><tspan
         sodipodi:role="line"
         id="tspan3160-5-1"
         x="594.91211"
         y="123.58483">x<tspan
   style="font-size:65.00091553%;baseline-shift:sub"
   id="tspan3237">B1</tspan></tspan></text>
    <flowRoot
       xml:space="preserve"
       id="flowRoot3245"
       style="font-size:12px;font-style:normal;font-weight:normal;line-height:125%;letter-spacing:0px;word-spacing:0px;fill:#000000;fill-opacity:1;stroke:none;font-family:Sans"
       transform="translate(430.60605,51.762183)"><flowRegion
         id="flowRegion3247"><rect
           id="rect3249"
           width="35.75"
           height="51.5"
           x="212.5"
           y="40.700001" /></flowRegion><flowPara
         id="flowPara3251" /></flowRoot>    <text
       xml:space="preserve"
       style="font-size:12px;font-style:normal;font-weight:normal;line-height:125%;letter-spacing:0px;word-spacing:0px;fill:#000000;fill-opacity:1;stroke:none;font-family:Sans"
       x="405"
       y="107.36217"
       id="text3158-5-2"
       sodipodi:linespacing="125%"><tspan
         sodipodi:role="line"
         id="tspan3160-5-3"
         x="405"
         y="107.36217">y<tspan
   style="font-size:65.00091553%;baseline-shift:sub"
   id="tspan3243-2">A0</tspan></tspan></text>
    <text
       xml:space="preserve"
       style="font-size:12px;font-style:normal;font-weight:normal;line-height:125%;letter-spacing:0px;word-spacing:0px;fill:#000000;fill-opacity:1;stroke:none;font-family:Sans"
       x="405"
       y="97.362175"
       id="text3158-5-16"
       sodipodi:linespacing="125%"><tspan
         sodipodi:role="line"
         id="tspan3160-5-8"
         x="405"
         y="97.362175">y<tspan
   style="font-size:65.00091553%;baseline-shift:sub"
   id="tspan3321">B</tspan><tspan
   style="font-size:65.00091553%;baseline-shift:sub"
   id="tspan3243-5">0</tspan></tspan></text>
    <text
       xml:space="preserve"
       style="font-size:12px;font-style:normal;font-weight:normal;line-height:125%;letter-spacing:0px;word-spacing:0px;fill:#000000;fill-opacity:1;stroke:none;font-family:Sans"
       x="404.91211"
       y="67.362167"
       id="text3158-5-18"
       sodipodi:linespacing="125%"><tspan
         sodipodi:role="line"
         id="tspan3160-5-9"
         x="404.91211"
         y="67.362167">y<tspan
   style="font-size:65.00091553%;baseline-shift:sub"
   id="tspan3243-27">B1</tspan></tspan></text>
    <text
       xml:space="preserve"
       style="font-size:12px;font-style:normal;font-weight:normal;line-height:125%;letter-spacing:0px;word-spacing:0px;fill:#000000;fill-opacity:1;stroke:none;font-family:Sans"
       x="405"
       y="52.362175"
       id="text3158-5-5"
       sodipodi:linespacing="125%"><tspan
         sodipodi:role="line"
         id="tspan3160-5-4"
         x="405"
         y="52.362175">y<tspan
   style="font-size:65.00091553%;baseline-shift:sub"
   id="tspan3243-3">A1</tspan></tspan></text>
    <text
       xml:space="preserve"
       style="font-size:12px;font-style:normal;font-weight:normal;line-height:125%;letter-spacing:0px;word-spacing:0px;fill:#000000;fill-opacity:1;stroke:none;font-family:Sans"
       x="48.75"
       y="20.450003"
       id="text3323"
       sodipodi:linespacing="125%"
       transform="translate(430.60605,51.762183)"><tspan
         sodipodi:role="line"
         id="tspan3325"
         x="48.75"
         y="20.450003">A</tspan></text>
    <text
       xml:space="preserve"
       style="font-size:12px;font-style:normal;font-weight:normal;line-height:125%;letter-spacing:0px;word-spacing:0px;fill:#000000;fill-opacity:1;stroke:none;font-family:Sans"
       x="597.87109"
       y="78.362175"
       id="text3327"
       sodipodi:linespacing="125%"><tspan
         sodipodi:role="line"
         id="tspan3329"
         x="597.87109"
         y="78.362175">B</tspan></text>
  </g>
</svg>
