<?xml version="1.0" encoding="UTF-8" standalone="no"?>
<!-- Created with Inkscape (http://www.inkscape.org/) -->

<svg
   xmlns:dc="http://purl.org/dc/elements/1.1/"
   xmlns:cc="http://creativecommons.org/ns#"
   xmlns:rdf="http://www.w3.org/1999/02/22-rdf-syntax-ns#"
   xmlns:svg="http://www.w3.org/2000/svg"
   xmlns="http://www.w3.org/2000/svg"
   xmlns:sodipodi="http://sodipodi.sourceforge.net/DTD/sodipodi-0.dtd"
   xmlns:inkscape="http://www.inkscape.org/namespaces/inkscape"
   width="720"
   height="540"
   id="svg4101"
   version="1.1"
   inkscape:version="0.48.4 r9939"
   sodipodi:docname="New document 5">
  <defs
     id="defs4103">
    <clipPath
       id="clipPath4401"
       clipPathUnits="userSpaceOnUse">
      <path
         id="path4403"
         d="m 62.91,45.36 491.41125,0 0,367.83 -491.41125,0 0,-367.83 z"
         inkscape:connector-curvature="0" />
    </clipPath>
    <clipPath
       id="clipPath4381"
       clipPathUnits="userSpaceOnUse">
      <path
         id="path4383"
         d="m 62.91,45.36 491.41125,0 0,367.83 -491.41125,0 0,-367.83 z"
         inkscape:connector-curvature="0" />
    </clipPath>
    <clipPath
       id="clipPath4361"
       clipPathUnits="userSpaceOnUse">
      <path
         id="path4363"
         d="m 62.91,45.36 491.41125,0 0,367.83 -491.41125,0 0,-367.83 z"
         inkscape:connector-curvature="0" />
    </clipPath>
    <clipPath
       id="clipPath4341"
       clipPathUnits="userSpaceOnUse">
      <path
         id="path4343"
         d="m 62.91,45.36 491.41125,0 0,367.83 -491.41125,0 0,-367.83 z"
         inkscape:connector-curvature="0" />
    </clipPath>
    <clipPath
       id="clipPath4321"
       clipPathUnits="userSpaceOnUse">
      <path
         id="path4323"
         d="m 62.91,45.36 491.41125,0 0,367.83 -491.41125,0 0,-367.83 z"
         inkscape:connector-curvature="0" />
    </clipPath>
    <clipPath
       id="clipPath4301"
       clipPathUnits="userSpaceOnUse">
      <path
         id="path4303"
         d="m 62.91,45.36 491.41125,0 0,367.83 -491.41125,0 0,-367.83 z"
         inkscape:connector-curvature="0" />
    </clipPath>
    <clipPath
       id="clipPath4281"
       clipPathUnits="userSpaceOnUse">
      <path
         id="path4283"
         d="m 62.91,45.36 491.41125,0 0,367.83 -491.41125,0 0,-367.83 z"
         inkscape:connector-curvature="0" />
    </clipPath>
    <clipPath
       id="clipPath4261"
       clipPathUnits="userSpaceOnUse">
      <path
         id="path4263"
         d="m 62.91,45.36 491.41125,0 0,367.83 -491.41125,0 0,-367.83 z"
         inkscape:connector-curvature="0" />
    </clipPath>
    <clipPath
       id="clipPath4237"
       clipPathUnits="userSpaceOnUse">
      <path
         id="path4239"
         d="m 62.91,45.36 491.41125,0 0,367.83 -491.41125,0 0,-367.83 z"
         inkscape:connector-curvature="0" />
    </clipPath>
    <clipPath
       id="clipPath4217"
       clipPathUnits="userSpaceOnUse">
      <path
         id="path4219"
         d="m 62.91,45.36 491.41125,0 0,367.83 -491.41125,0 0,-367.83 z"
         inkscape:connector-curvature="0" />
    </clipPath>
    <clipPath
       id="clipPath4197"
       clipPathUnits="userSpaceOnUse">
      <path
         id="path4199"
         d="m 62.91,45.36 491.41125,0 0,367.83 -491.41125,0 0,-367.83 z"
         inkscape:connector-curvature="0" />
    </clipPath>
    <clipPath
       id="clipPath4177"
       clipPathUnits="userSpaceOnUse">
      <path
         id="path4179"
         d="m 62.91,45.36 491.41125,0 0,367.83 -491.41125,0 0,-367.83 z"
         inkscape:connector-curvature="0" />
    </clipPath>
    <clipPath
       id="clipPath4157"
       clipPathUnits="userSpaceOnUse">
      <path
         id="path4159"
         d="m 62.91,45.36 491.41125,0 0,367.83 -491.41125,0 0,-367.83 z"
         inkscape:connector-curvature="0" />
    </clipPath>
    <clipPath
       id="clipPath4147"
       clipPathUnits="userSpaceOnUse">
      <path
         id="path4149"
         d="m 62.91,45.36 491.41125,0 0,367.83 -491.41125,0 0,-367.83 z"
         inkscape:connector-curvature="0" />
    </clipPath>
    <clipPath
       id="clipPath4137"
       clipPathUnits="userSpaceOnUse">
      <path
         id="path4139"
         d="m 62.91,45.36 491.41125,0 0,367.83 -491.41125,0 0,-367.83 z"
         inkscape:connector-curvature="0" />
    </clipPath>
    <clipPath
       id="clipPath4127"
       clipPathUnits="userSpaceOnUse">
      <path
         id="path4129"
         d="m 62.91,45.36 491.41125,0 0,367.83 -491.41125,0 0,-367.83 z"
         inkscape:connector-curvature="0" />
    </clipPath>
  </defs>
  <sodipodi:namedview
     id="base"
     pagecolor="#ffffff"
     bordercolor="#666666"
     borderopacity="1.0"
     inkscape:pageopacity="0.0"
     inkscape:pageshadow="2"
     inkscape:zoom="0.98994949"
     inkscape:cx="557.34077"
     inkscape:cy="336.36673"
     inkscape:document-units="px"
     inkscape:current-layer="g4407"
     showgrid="false"
     fit-margin-top="0"
     fit-margin-left="0"
     fit-margin-right="0"
     fit-margin-bottom="0"
     inkscape:window-width="1680"
     inkscape:window-height="987"
     inkscape:window-x="1358"
     inkscape:window-y="-8"
     inkscape:window-maximized="1" />
  <metadata
     id="metadata4106">
    <rdf:RDF>
      <cc:Work
         rdf:about="">
        <dc:format>image/svg+xml</dc:format>
        <dc:type
           rdf:resource="http://purl.org/dc/dcmitype/StillImage" />
        <dc:title></dc:title>
      </cc:Work>
    </rdf:RDF>
  </metadata>
  <g
     inkscape:label="Layer 1"
     inkscape:groupmode="layer"
     id="layer1"
     transform="translate(-15,-262.36218)">
    <g
       transform="matrix(1.25,0,0,-1.25,15,802.36218)"
       inkscape:label="cubeBlockBM_dt_dpf"
       id="g4117">
      <path
         id="path4119"
         style="fill:#ffffff;fill-opacity:1;fill-rule:nonzero;stroke:none"
         d="M 0,0 576,0 576,432 0,432 0,0 z"
         inkscape:connector-curvature="0" />
      <path
         id="path4121"
         style="fill:#ffffff;fill-opacity:1;fill-rule:nonzero;stroke:none"
         d="m 62.91,45.36 491.41125,0 0,367.83 -491.41125,0 0,-367.83 z"
         inkscape:connector-curvature="0" />
      <g
         id="g4123">
        <g
           clip-path="url(#clipPath4127)"
           id="g4125">
          <path
             id="path4131"
             style="fill:none;stroke:#0000ff;stroke-width:1;stroke-linecap:square;stroke-linejoin:round;stroke-miterlimit:10;stroke-opacity:1;stroke-dasharray:none"
             d="m 62.91,45.36 37.83867,0 1.71994,1.555597 1.71993,35.29178 1.71994,16.81293 3.43988,38.518353 1.71994,40.89385 1.71994,29.37526 1.71994,24.45464 1.71994,20.64339 1.71994,22.70959 1.71994,32.40448 1.71994,11.25272 1.71994,4.77244 1.71994,16.22163 1.71994,-3.00804 1.71994,-16.46294 1.71994,-3.96159 1.71993,2.62557 1.71994,52.50905 1.71994,14.92713 1.71994,-3.87571 1.71994,0.0897 1.71994,-0.72637 1.71994,-5.60127 1.71994,-16.08409 1.71994,-24.89095 1.71994,-27.49406 1.71994,-34.90043 5.15982,-113.68585 3.43988,-47.81489 1.71993,-19.012749 1.71994,-10.354983 1.71994,-8.671453 1.71994,-8.065196 1.71994,-7.485862 1.71994,-3.33146 3.43988,-5.023567 1.71994,-2.046113 1.71994,-1.814223 1.71994,-0.746284 15.47945,0 3.43988,3.516597 1.71994,5.577198 1.71994,8.376786 1.71994,13.935682 1.71994,21.591909 1.71994,40.261538 3.43988,112.15847 1.71994,46.95388 1.71994,39.62567 1.71994,55.52551 1.71993,14.28507 1.71994,-0.9256 1.71994,-14.49602 1.71994,-26.81629 1.71994,-37.34742 1.71994,-45.52174 3.43988,-103.9583 1.71994,-52.0721 1.71994,-44.962255 1.71994,-28.288755 1.71994,-4.430289 1.71994,-2.590665 1.71994,-0.270557 1.71994,0.293323 1.71994,1.4174 1.71993,2.20926 1.71994,3.89757 1.71994,5.105496 1.71994,5.881462 3.43988,19.639692 1.71994,14.054536 1.71994,11.922492 1.71994,13.21983 3.43988,22.73231 1.71994,9.79813 1.71994,8.14805 1.71994,6.38378 1.71994,7.14534 1.71994,4.80281 1.71993,9.99638 1.71994,-1.7353 1.71994,-4.75767 1.71994,-6.79116 1.71994,-7.55896 1.71994,-3.60123 1.71994,-1.81627 1.71994,-2.60422 1.71994,-2.05337 1.71994,-1.74595 1.71994,-2.21629 1.71994,-2.40587 1.71994,-3.05702 1.71994,-0.33131 1.71994,-2.20106 1.71994,-0.0723 1.71993,1.05139 1.71994,1.20437 1.71994,1.40795 1.71994,2.51987 1.71994,-0.0371 1.71994,2.86585 3.43988,0.85772 1.71994,1.9029 1.71994,1.52716 1.71994,0.72781 1.71994,0.58075 1.71994,3.11541 1.71994,1.66652 1.71994,-2.77514 1.71994,-4.56196 1.71994,-5.81614 1.71993,-6.70867 1.71994,-7.2711 1.71994,-6.37883 1.71994,-5.19726 5.15982,-14.2225 1.71994,-4.13186 1.71994,-3.25213 1.71994,-2.23098 1.71994,-1.0554 1.71994,0.89898 1.71994,6.3591 1.71994,5.60122 3.43988,12.46104 3.43987,12.99339 1.71994,6.03768 1.71994,5.40148 1.71994,4.59186 1.71994,3.75179 1.71994,2.54691 1.71994,1.32371 1.71994,0.14282 1.71994,-0.93824 1.71994,-1.8777 1.71994,-2.40363 1.71994,-2.99866 3.43988,-6.99142 3.43987,-7.10796 1.71994,-3.25808 1.71994,-2.93241 1.71994,-2.52688 1.71994,-2.10864 1.71994,-1.6926 1.71994,-1.27417 1.71994,-0.88034 1.71994,-0.51677 1.71994,-0.1991 1.71994,0.0719 1.71994,0.29173 1.71994,0.46504 3.43988,1.297 3.43987,1.58745 3.43988,1.78119 3.43988,1.96436 3.43988,2.18452 3.43988,2.42324 8.5997,6.33818 1.71994,1.06298 1.71993,0.89781 1.71994,0.69154 1.71994,0.44518 1.71994,0.17513 1.71994,-0.11364 1.71994,-0.40497 1.71994,-0.68936 1.71994,-0.95914 1.71994,-1.19088 3.43988,-2.90673 6.87976,-6.28258 1.71994,-1.32846 1.71993,-1.13272 1.71994,-0.8966 1.71994,-0.63864 1.71994,-0.37224 1.71994,-0.10301 1.71994,0.1574 1.71994,0.39703 1.71994,0.60788 1.71994,0.78382 3.43988,1.95128 8.5997,5.30949 3.43987,1.6706 1.71994,0.66816 1.71994,0.54894 1.71994,0.42744 3.43988,0.50626 1.71994,-0.48718 1.71994,0.45776 5.15982,-0.35406 3.43988,-0.5484 3.43988,-0.76744 3.43987,-0.97429 12.03958,-3.70669 3.43988,-0.64873 3.43988,-0.27637 3.43988,0.12967 3.43987,0.51196 3.43988,0.82337 5.15982,1.58261 0,0"
             inkscape:connector-curvature="0" />
        </g>
      </g>
      <g
         id="g4133">
        <g
           clip-path="url(#clipPath4137)"
           id="g4135">
          <path
             id="path4141"
             style="fill:none;stroke:#008000;stroke-width:1;stroke-linecap:square;stroke-linejoin:round;stroke-miterlimit:10;stroke-opacity:1;stroke-dasharray:none"
             d="m 62.91,45.36 37.34726,0 1.96564,1.764247 1.96564,40.326172 1.96565,18.564291 3.93129,44.18713 1.96565,56.62005 1.96564,24.91024 1.96565,22.04095 1.96564,24.83638 1.96565,34.42208 1.96564,7.02787 1.96565,2.03428 1.96564,20.0562 1.96565,-22.13706 1.96564,-16.73289 1.96564,28.8831 1.96565,57.88544 1.96564,-12.06807 1.96565,-1.16503 1.96564,-59.58763 1.96565,20.41826 1.96565,-3.86972 1.96564,-15.24285 1.96564,-23.20171 1.96565,-28.5666 5.89693,-90.65303 1.96565,-26.41287 1.96564,-17.03598 1.96565,-20.46593 1.96564,-16.927588 1.96565,-9.640534 1.96564,-7.953953 3.93129,-13.789629 1.96565,-5.83975 1.96564,-2.791109 1.96565,-1.639161 1.96564,-1.220074 1.96565,-0.843439 1.96564,-0.718599 1.96565,-0.277909 1.96564,1.120006 1.96565,1.840129 1.96564,2.33953 1.96565,7.299646 1.96564,12.145526 1.96565,19.657414 3.93129,77.715004 1.96564,47.47766 1.96565,61.44 1.96564,25.18261 1.96565,39.41758 1.96564,12.24691 1.96565,1.71533 1.96564,-15.66082 1.96565,-31.70448 1.96564,-41.6116 3.9313,-98.51473 1.96564,-49.12756 1.96564,-37.295712 1.96565,-12.806972 1.96564,-6.528179 1.96565,-2.80299 1.96565,-0.297462 1.96564,1.760757 1.96565,2.958905 1.96564,4.221634 1.96564,6.224071 1.96565,7.057392 1.96564,7.962591 1.96565,8.560505 1.96564,7.70093 1.96565,8.52119 1.96564,9.35641 1.96565,8.04001 1.96564,8.65916 1.96565,12.41354 1.96564,14.34067 1.96565,12.34318 1.96564,2.00909 1.96565,-0.79335 1.96564,-3.20453 1.96565,-2.14804 1.96564,-1.89726 1.96565,-3.28122 1.96564,-6.5126 1.96565,-0.52224 1.96564,-8.36305 1.96565,-2.4604 1.96565,-7.45905 3.93128,-7.2559 1.96565,-2.69788 1.96564,-0.48237 1.96565,-2.78255 1.96564,1.41532 1.96565,-1.8683 1.96564,4.66968 1.96565,2.51812 3.93129,7.27601 1.96565,6.86361 1.96564,4.2912 1.96564,-0.90523 1.96565,-2.5237 1.96564,-4.07314 1.96565,-5.41704 5.89694,-18.99488 1.96564,-5.67578 1.96564,-5.02283 1.96565,-3.91974 1.96564,-2.09719 1.96565,0.89468 1.96564,2.21538 1.96565,3.66675 1.96564,4.86055 1.96565,5.68945 5.89693,17.97289 1.96565,5.02991 1.96565,4.04594 1.96564,2.87506 1.96564,1.60809 1.96565,0.33509 1.96564,-0.85994 1.96565,-1.89936 1.96565,-2.7368 1.96564,-3.32228 5.89693,-11.0435 1.96565,-3.31786 1.96564,-2.8626 1.96565,-2.29938 1.96564,-1.69633 1.96565,-1.08733 1.96564,-0.5038 1.96565,-0.005 1.96564,0.41399 1.96565,0.73549 1.96564,0.95413 9.82823,5.30534 3.93129,1.63176 3.93129,1.3563 11.79387,3.68957 3.93129,0.94536 1.96564,0.29026 1.96565,0.12478 1.96564,-0.0701 1.96565,-0.26469 1.96564,-0.47337 1.96565,-0.6694 1.96564,-0.83104 3.9313,-2.00729 5.89693,-3.11173 1.96565,-0.85854 1.96564,-0.68658 1.96564,-1.04024 1.96565,0.22099 1.96565,-0.0261 1.96564,0.2644 1.96564,0.45723 1.96565,0.62128 3.93129,1.59262 5.89693,2.55233 3.93129,1.39406 1.96565,0.54055 3.93129,0.73404 3.93129,0.28927 3.93129,-0.0733 3.93129,-0.34782 5.89693,-0.84076 13.75952,-2.23364 1.96565,-0.84502 1.96564,0.32218 1.96564,-0.10137 3.93129,0.1196 3.93129,0.337 5.89694,0.78393 7.86258,1.1324 0,0"
             inkscape:connector-curvature="0" />
        </g>
      </g>
      <g
         id="g4143">
        <g
           clip-path="url(#clipPath4147)"
           id="g4145">
          <path
             id="path4151"
             style="fill:none;stroke:#ff0000;stroke-width:1;stroke-linecap:square;stroke-linejoin:round;stroke-miterlimit:10;stroke-opacity:1;stroke-dasharray:none"
             d="m 62.91,45.36 37.59296,0 2.21135,3.178234 2.21135,54.515116 2.21135,19.10284 2.21135,24.4506 2.21135,58.9299 2.21135,27.50796 2.21136,24.09589 2.21135,39.26661 2.21135,15.50574 2.21135,4.17064 2.21135,14.48652 2.21135,-21.30004 2.21135,6.92492 2.21135,-32.34786 2.21135,126.89559 2.21135,-44.08684 2.21135,11.84993 2.21135,-14.46838 2.21135,-9.72692 2.21135,-33.64089 2.21135,-40.99154 4.4227,-95.40056 2.21136,-41.70568 2.21135,-25.10175 2.21135,-26.833413 2.21135,-13.810845 2.21135,-9.332071 2.21135,-8.43371 2.21135,-5.0777 2.21135,-2.536864 2.21135,-2.243306 2.21135,-1.799866 2.21135,-1.379846 2.21135,-0.662409 4.4227,0 2.21135,0.301758 2.21135,1.225322 2.21136,1.600486 2.21135,5.910793 2.21135,11.980289 2.21135,27.694394 2.21135,53.417968 2.21135,61.33871 2.21135,67.83128 2.21135,59.71607 2.21135,34.1337 2.21135,-12.3136 2.21135,-0.91159 2.21135,-48.29184 2.21135,-34.14227 2.21135,-65.97972 2.21135,-48.1754 2.21136,-57.98697 2.21135,-39.284597 2.21135,-12.510425 2.21135,-1.242225 2.21135,1.259587 2.21135,3.012919 2.21135,6.373306 2.21135,9.434372 2.21135,12.494525 2.21135,15.201033 2.21135,19.415935 4.4227,32.44622 2.21135,13.90124 2.21135,18.12251 2.21135,3.39264 2.21135,6.87112 2.21136,-11.2921 2.21135,-0.39162 2.21135,-15.87546 2.21135,-2.06781 2.21135,-12.13366 2.21135,-1.99936 2.21135,-9.73606 2.21135,-0.34133 2.21135,-6.26124 2.21135,1.34017 2.21135,-3.84907 2.21135,3.52976 2.21135,-2.48571 2.21135,8.10442 2.21135,2.05266 2.21135,10.83038 2.21136,-0.3434 2.21135,7.60136 2.21135,-5.39053 2.21135,4.07409 2.21135,-9.18654 2.21135,0.87059 2.21135,-10.96592 2.21135,-0.37056 2.21135,-9.98239 2.21135,0.70175 2.21135,-7.03774 2.21135,3.29415 2.21135,-3.63855 2.21135,6.20163 2.21135,-1.11413 2.21135,8.36182 2.21136,-0.21717 2.21135,9.17691 2.21135,-6.08891 2.21135,12.00189 2.21135,-1.24406 2.21135,8.53625 2.21135,-3.94011 2.21135,6.8301 2.21135,-6.02847 2.21135,5.0046 2.21135,-7.74199 2.21135,3.48948 2.21135,-8.50932 2.21135,2.83481 2.21135,-8.23129 2.21136,3.04537 2.21135,-7.25758 2.21135,3.83139 2.21135,-6.05607 2.21135,4.80319 2.21135,-5.044 2.21135,5.62066 2.21135,-4.44364 2.21135,6.11417 2.21135,-4.30578 2.21135,6.2611 2.21135,-4.50281 2.21135,6.16919 2.21135,-7.53071 2.21135,11.78184 2.21135,-10.68229 2.21135,11.93217 2.21136,-10.76226 2.21135,11.90834 2.21135,-10.98002 2.21135,11.80146 2.21135,-11.21751 2.21135,11.60859 2.21135,-11.40593 2.21135,11.40074 2.21135,-11.56194 2.21135,11.41742 2.21135,-11.09484 2.21135,14.57493 2.21135,-22.77617 2.21135,13.77634 2.21135,-11.12377 2.21135,10.95354 2.21136,-11.41864 2.21135,11.20266 2.21135,-10.79356 2.21135,11.70766 2.21135,-10.64631 2.21135,11.81978 2.21135,-10.83198 2.21135,11.71959 2.21135,-11.03867 2.21135,11.59584 2.21135,-11.21368 2.21135,11.50082 2.21135,-11.31607 2.21135,11.48167 2.21135,-11.34739 2.21135,11.5094 2.21136,-11.34374 2.21135,11.55014 2.21135,-11.34438 2.21135,11.56815 2.21135,-11.37841 2.21135,11.5316 2.21135,-11.44669 2.21135,11.44698 2.21135,-11.53569 2.21135,11.31758 2.21135,-11.59665 2.21135,11.1954 2.21135,-11.60024 2.21135,11.11226 2.21135,-11.53266 2.21135,11.0847 2.21136,-11.41936 2.21135,11.12295 2.21135,-11.27289 2.21135,11.19689 2.21135,-11.14402 2.21135,11.29041 2.21135,-11.05723 2.21135,11.3735 2.21135,-11.01927 2.21135,11.43254 2.21135,-10.33506 2.21135,11.09031 2.21135,-11.37876 2.21135,11.4445 2.21135,-11.5423 2.21135,11.41595 2.21136,-11.61987 2.21135,11.40883 2.21135,-11.3151 2.21135,11.65958 2.21135,-12.65165 2.21135,12.00981 0,0"
             inkscape:connector-curvature="0" />
        </g>
      </g>
      <g
         id="g4153">
        <g
           clip-path="url(#clipPath4157)"
           id="g4155">
          <path
             id="path4161"
             style="fill:none;stroke:#000000;stroke-width:0.5;stroke-linecap:butt;stroke-linejoin:round;stroke-miterlimit:10;stroke-opacity:1;stroke-dasharray:1, 3;stroke-dashoffset:0"
             d="m 62.91,45.36 0,367.83"
             inkscape:connector-curvature="0" />
        </g>
      </g>
      <g
         id="g4163">
        <path
           id="path4165"
           style="fill:#000000;fill-opacity:1;fill-rule:nonzero;stroke:#000000;stroke-width:0.5;stroke-linecap:butt;stroke-linejoin:round;stroke-miterlimit:10;stroke-opacity:1;stroke-dasharray:none"
           d="m 62.91,45.36 0,4"
           inkscape:connector-curvature="0" />
        <path
           id="path4167"
           style="fill:#000000;fill-opacity:1;fill-rule:nonzero;stroke:#000000;stroke-width:0.5;stroke-linecap:butt;stroke-linejoin:round;stroke-miterlimit:10;stroke-opacity:1;stroke-dasharray:none"
           d="m 62.91,413.19 0,-4"
           inkscape:connector-curvature="0" />
        <text
           id="text4169"
           transform="matrix(1,0,0,-1,54.16,32.235)">
          <tspan
             id="tspan4171"
             sodipodi:role="line"
             y="0"
             x="0 7.632 11.448"
             style="font-size:12px;font-variant:normal;font-weight:normal;writing-mode:lr-tb;fill:#000000;fill-opacity:1;fill-rule:nonzero;stroke:none;font-family:BitstreamVeraSans;-inkscape-font-specification:BitstreamVeraSans-Roman">0.0</tspan>
        </text>
      </g>
      <g
         id="g4173">
        <g
           clip-path="url(#clipPath4177)"
           id="g4175">
          <path
             id="path4181"
             style="fill:none;stroke:#000000;stroke-width:0.5;stroke-linecap:butt;stroke-linejoin:round;stroke-miterlimit:10;stroke-opacity:1;stroke-dasharray:1, 3;stroke-dashoffset:0"
             d="m 185.76281,45.36 0,367.83"
             inkscape:connector-curvature="0" />
        </g>
      </g>
      <g
         id="g4183">
        <path
           id="path4185"
           style="fill:#000000;fill-opacity:1;fill-rule:nonzero;stroke:#000000;stroke-width:0.5;stroke-linecap:butt;stroke-linejoin:round;stroke-miterlimit:10;stroke-opacity:1;stroke-dasharray:none"
           d="m 185.76281,45.36 0,4"
           inkscape:connector-curvature="0" />
        <path
           id="path4187"
           style="fill:#000000;fill-opacity:1;fill-rule:nonzero;stroke:#000000;stroke-width:0.5;stroke-linecap:butt;stroke-linejoin:round;stroke-miterlimit:10;stroke-opacity:1;stroke-dasharray:none"
           d="m 185.76281,413.19 0,-4"
           inkscape:connector-curvature="0" />
        <text
           id="text4189"
           transform="matrix(1,0,0,-1,177.13781,32.235)">
          <tspan
             id="tspan4191"
             sodipodi:role="line"
             y="0"
             x="0 7.632 11.448"
             style="font-size:12px;font-variant:normal;font-weight:normal;writing-mode:lr-tb;fill:#000000;fill-opacity:1;fill-rule:nonzero;stroke:none;font-family:BitstreamVeraSans;-inkscape-font-specification:BitstreamVeraSans-Roman">0.5</tspan>
        </text>
      </g>
      <g
         id="g4193">
        <g
           clip-path="url(#clipPath4197)"
           id="g4195">
          <path
             id="path4201"
             style="fill:none;stroke:#000000;stroke-width:0.5;stroke-linecap:butt;stroke-linejoin:round;stroke-miterlimit:10;stroke-opacity:1;stroke-dasharray:1, 3;stroke-dashoffset:0"
             d="m 308.61563,45.36 0,367.83"
             inkscape:connector-curvature="0" />
        </g>
      </g>
      <g
         id="g4203">
        <path
           id="path4205"
           style="fill:#000000;fill-opacity:1;fill-rule:nonzero;stroke:#000000;stroke-width:0.5;stroke-linecap:butt;stroke-linejoin:round;stroke-miterlimit:10;stroke-opacity:1;stroke-dasharray:none"
           d="m 308.61563,45.36 0,4"
           inkscape:connector-curvature="0" />
        <path
           id="path4207"
           style="fill:#000000;fill-opacity:1;fill-rule:nonzero;stroke:#000000;stroke-width:0.5;stroke-linecap:butt;stroke-linejoin:round;stroke-miterlimit:10;stroke-opacity:1;stroke-dasharray:none"
           d="m 308.61563,413.19 0,-4"
           inkscape:connector-curvature="0" />
        <text
           id="text4209"
           transform="matrix(1,0,0,-1,300.12344,32.235)">
          <tspan
             id="tspan4211"
             sodipodi:role="line"
             y="0"
             x="0 7.632 11.448"
             style="font-size:12px;font-variant:normal;font-weight:normal;writing-mode:lr-tb;fill:#000000;fill-opacity:1;fill-rule:nonzero;stroke:none;font-family:BitstreamVeraSans;-inkscape-font-specification:BitstreamVeraSans-Roman">1.0</tspan>
        </text>
      </g>
      <g
         id="g4213">
        <g
           clip-path="url(#clipPath4217)"
           id="g4215">
          <path
             id="path4221"
             style="fill:none;stroke:#000000;stroke-width:0.5;stroke-linecap:butt;stroke-linejoin:round;stroke-miterlimit:10;stroke-opacity:1;stroke-dasharray:1, 3;stroke-dashoffset:0"
             d="m 431.46844,45.36 0,367.83"
             inkscape:connector-curvature="0" />
        </g>
      </g>
      <g
         id="g4223">
        <path
           id="path4225"
           style="fill:#000000;fill-opacity:1;fill-rule:nonzero;stroke:#000000;stroke-width:0.5;stroke-linecap:butt;stroke-linejoin:round;stroke-miterlimit:10;stroke-opacity:1;stroke-dasharray:none"
           d="m 431.46844,45.36 0,4"
           inkscape:connector-curvature="0" />
        <path
           id="path4227"
           style="fill:#000000;fill-opacity:1;fill-rule:nonzero;stroke:#000000;stroke-width:0.5;stroke-linecap:butt;stroke-linejoin:round;stroke-miterlimit:10;stroke-opacity:1;stroke-dasharray:none"
           d="m 431.46844,413.19 0,-4"
           inkscape:connector-curvature="0" />
        <text
           id="text4229"
           transform="matrix(1,0,0,-1,423.10125,32.235)">
          <tspan
             id="tspan4231"
             sodipodi:role="line"
             y="0"
             x="0 7.632 11.448"
             style="font-size:12px;font-variant:normal;font-weight:normal;writing-mode:lr-tb;fill:#000000;fill-opacity:1;fill-rule:nonzero;stroke:none;font-family:BitstreamVeraSans;-inkscape-font-specification:BitstreamVeraSans-Roman">1.5</tspan>
        </text>
      </g>
      <g
         id="g4233">
        <g
           clip-path="url(#clipPath4237)"
           id="g4235">
          <path
             id="path4241"
             style="fill:none;stroke:#000000;stroke-width:0.5;stroke-linecap:butt;stroke-linejoin:round;stroke-miterlimit:10;stroke-opacity:1;stroke-dasharray:1, 3;stroke-dashoffset:0"
             d="m 554.32125,45.36 0,367.83"
             inkscape:connector-curvature="0" />
        </g>
      </g>
      <g
         id="g4243">
        <path
           id="path4245"
           style="fill:#000000;fill-opacity:1;fill-rule:nonzero;stroke:#000000;stroke-width:0.5;stroke-linecap:butt;stroke-linejoin:round;stroke-miterlimit:10;stroke-opacity:1;stroke-dasharray:none"
           d="m 554.32125,45.36 0,4"
           inkscape:connector-curvature="0" />
        <path
           id="path4247"
           style="fill:#000000;fill-opacity:1;fill-rule:nonzero;stroke:#000000;stroke-width:0.5;stroke-linecap:butt;stroke-linejoin:round;stroke-miterlimit:10;stroke-opacity:1;stroke-dasharray:none"
           d="m 554.32125,413.19 0,-4"
           inkscape:connector-curvature="0" />
        <text
           id="text4249"
           transform="matrix(1,0,0,-1,545.61031,32.235)">
          <tspan
             id="tspan4251"
             sodipodi:role="line"
             y="0"
             x="0 7.632 11.448"
             style="font-size:12px;font-variant:normal;font-weight:normal;writing-mode:lr-tb;fill:#000000;fill-opacity:1;fill-rule:nonzero;stroke:none;font-family:BitstreamVeraSans;-inkscape-font-specification:BitstreamVeraSans-Roman">2.0</tspan>
        </text>
        <text
           id="text4253"
           transform="matrix(1,0,0,-1,299.13125,15.61)">
          <tspan
             id="tspan4255"
             sodipodi:role="line"
             y="0"
             x="0 4.704 9.3839998 15.636"
             style="font-size:12px;font-variant:normal;font-weight:normal;writing-mode:lr-tb;fill:#000000;fill-opacity:1;fill-rule:nonzero;stroke:none;font-family:BitstreamVeraSans;-inkscape-font-specification:BitstreamVeraSans-Roman">t[s]</tspan>
        </text>
      </g>
      <g
         id="g4257">
        <g
           clip-path="url(#clipPath4261)"
           id="g4259">
          <path
             id="path4265"
             style="fill:none;stroke:#000000;stroke-width:0.5;stroke-linecap:butt;stroke-linejoin:round;stroke-miterlimit:10;stroke-opacity:1;stroke-dasharray:1, 3;stroke-dashoffset:0"
             d="m 62.91,45.36 491.41125,0"
             inkscape:connector-curvature="0" />
        </g>
      </g>
      <g
         id="g4267">
        <path
           id="path4269"
           style="fill:#000000;fill-opacity:1;fill-rule:nonzero;stroke:#000000;stroke-width:0.5;stroke-linecap:butt;stroke-linejoin:round;stroke-miterlimit:10;stroke-opacity:1;stroke-dasharray:none"
           d="m 62.91,45.36 4,0"
           inkscape:connector-curvature="0" />
        <path
           id="path4271"
           style="fill:#000000;fill-opacity:1;fill-rule:nonzero;stroke:#000000;stroke-width:0.5;stroke-linecap:butt;stroke-linejoin:round;stroke-miterlimit:10;stroke-opacity:1;stroke-dasharray:none"
           d="m 554.32125,45.36 -4,0"
           inkscape:connector-curvature="0" />
        <text
           id="text4273"
           transform="matrix(1,0,0,-1,52.863125,42.0475)">
          <tspan
             id="tspan4275"
             y="0"
             x="0"
             style="font-size:12px;font-variant:normal;font-weight:normal;writing-mode:lr-tb;fill:#000000;fill-opacity:1;fill-rule:nonzero;stroke:none;font-family:BitstreamVeraSans;-inkscape-font-specification:BitstreamVeraSans-Roman">0</tspan>
        </text>
      </g>
      <g
         id="g4277">
        <g
           clip-path="url(#clipPath4281)"
           id="g4279">
          <path
             id="path4285"
             style="fill:none;stroke:#000000;stroke-width:0.5;stroke-linecap:butt;stroke-linejoin:round;stroke-miterlimit:10;stroke-opacity:1;stroke-dasharray:1, 3;stroke-dashoffset:0"
             d="m 62.91,97.907143 491.41125,0"
             inkscape:connector-curvature="0" />
        </g>
      </g>
      <g
         id="g4287">
        <path
           id="path4289"
           style="fill:#000000;fill-opacity:1;fill-rule:nonzero;stroke:#000000;stroke-width:0.5;stroke-linecap:butt;stroke-linejoin:round;stroke-miterlimit:10;stroke-opacity:1;stroke-dasharray:none"
           d="m 62.91,97.907143 4,0"
           inkscape:connector-curvature="0" />
        <path
           id="path4291"
           style="fill:#000000;fill-opacity:1;fill-rule:nonzero;stroke:#000000;stroke-width:0.5;stroke-linecap:butt;stroke-linejoin:round;stroke-miterlimit:10;stroke-opacity:1;stroke-dasharray:none"
           d="m 554.32125,97.907143 -4,0"
           inkscape:connector-curvature="0" />
        <text
           id="text4293"
           transform="matrix(1,0,0,-1,30.456875,94.594643)">
          <tspan
             id="tspan4295"
             sodipodi:role="line"
             y="0"
             x="0 7.632 15.264 22.896"
             style="font-size:12px;font-variant:normal;font-weight:normal;writing-mode:lr-tb;fill:#000000;fill-opacity:1;fill-rule:nonzero;stroke:none;font-family:BitstreamVeraSans;-inkscape-font-specification:BitstreamVeraSans-Roman">1000</tspan>
        </text>
      </g>
      <g
         id="g4297">
        <g
           clip-path="url(#clipPath4301)"
           id="g4299">
          <path
             id="path4305"
             style="fill:none;stroke:#000000;stroke-width:0.5;stroke-linecap:butt;stroke-linejoin:round;stroke-miterlimit:10;stroke-opacity:1;stroke-dasharray:1, 3;stroke-dashoffset:0"
             d="m 62.91,150.45429 491.41125,0"
             inkscape:connector-curvature="0" />
        </g>
      </g>
      <g
         id="g4307">
        <path
           id="path4309"
           style="fill:#000000;fill-opacity:1;fill-rule:nonzero;stroke:#000000;stroke-width:0.5;stroke-linecap:butt;stroke-linejoin:round;stroke-miterlimit:10;stroke-opacity:1;stroke-dasharray:none"
           d="m 62.91,150.45429 4,0"
           inkscape:connector-curvature="0" />
        <path
           id="path4311"
           style="fill:#000000;fill-opacity:1;fill-rule:nonzero;stroke:#000000;stroke-width:0.5;stroke-linecap:butt;stroke-linejoin:round;stroke-miterlimit:10;stroke-opacity:1;stroke-dasharray:none"
           d="m 554.32125,150.45429 -4,0"
           inkscape:connector-curvature="0" />
        <text
           id="text4313"
           transform="matrix(1,0,0,-1,30.019375,147.14179)">
          <tspan
             id="tspan4315"
             sodipodi:role="line"
             y="0"
             x="0 7.632 15.264 22.896"
             style="font-size:12px;font-variant:normal;font-weight:normal;writing-mode:lr-tb;fill:#000000;fill-opacity:1;fill-rule:nonzero;stroke:none;font-family:BitstreamVeraSans;-inkscape-font-specification:BitstreamVeraSans-Roman">2000</tspan>
        </text>
      </g>
      <g
         id="g4317">
        <g
           clip-path="url(#clipPath4321)"
           id="g4319">
          <path
             id="path4325"
             style="fill:none;stroke:#000000;stroke-width:0.5;stroke-linecap:butt;stroke-linejoin:round;stroke-miterlimit:10;stroke-opacity:1;stroke-dasharray:1, 3;stroke-dashoffset:0"
             d="m 62.91,203.00143 491.41125,0"
             inkscape:connector-curvature="0" />
        </g>
      </g>
      <g
         id="g4327">
        <path
           id="path4329"
           style="fill:#000000;fill-opacity:1;fill-rule:nonzero;stroke:#000000;stroke-width:0.5;stroke-linecap:butt;stroke-linejoin:round;stroke-miterlimit:10;stroke-opacity:1;stroke-dasharray:none"
           d="m 62.91,203.00143 4,0"
           inkscape:connector-curvature="0" />
        <path
           id="path4331"
           style="fill:#000000;fill-opacity:1;fill-rule:nonzero;stroke:#000000;stroke-width:0.5;stroke-linecap:butt;stroke-linejoin:round;stroke-miterlimit:10;stroke-opacity:1;stroke-dasharray:none"
           d="m 554.32125,203.00143 -4,0"
           inkscape:connector-curvature="0" />
        <text
           id="text4333"
           transform="matrix(1,0,0,-1,30.06625,199.68893)">
          <tspan
             id="tspan4335"
             sodipodi:role="line"
             y="0"
             x="0 7.632 15.264 22.896"
             style="font-size:12px;font-variant:normal;font-weight:normal;writing-mode:lr-tb;fill:#000000;fill-opacity:1;fill-rule:nonzero;stroke:none;font-family:BitstreamVeraSans;-inkscape-font-specification:BitstreamVeraSans-Roman">3000</tspan>
        </text>
      </g>
      <g
         id="g4337">
        <g
           clip-path="url(#clipPath4341)"
           id="g4339">
          <path
             id="path4345"
             style="fill:none;stroke:#000000;stroke-width:0.5;stroke-linecap:butt;stroke-linejoin:round;stroke-miterlimit:10;stroke-opacity:1;stroke-dasharray:1, 3;stroke-dashoffset:0"
             d="m 62.91,255.54857 491.41125,0"
             inkscape:connector-curvature="0" />
        </g>
      </g>
      <g
         id="g4347">
        <path
           id="path4349"
           style="fill:#000000;fill-opacity:1;fill-rule:nonzero;stroke:#000000;stroke-width:0.5;stroke-linecap:butt;stroke-linejoin:round;stroke-miterlimit:10;stroke-opacity:1;stroke-dasharray:none"
           d="m 62.91,255.54857 4,0"
           inkscape:connector-curvature="0" />
        <path
           id="path4351"
           style="fill:#000000;fill-opacity:1;fill-rule:nonzero;stroke:#000000;stroke-width:0.5;stroke-linecap:butt;stroke-linejoin:round;stroke-miterlimit:10;stroke-opacity:1;stroke-dasharray:none"
           d="m 554.32125,255.54857 -4,0"
           inkscape:connector-curvature="0" />
        <text
           id="text4353"
           transform="matrix(1,0,0,-1,29.738125,252.23607)">
          <tspan
             id="tspan4355"
             sodipodi:role="line"
             y="0"
             x="0 7.632 15.264 22.896"
             style="font-size:12px;font-variant:normal;font-weight:normal;writing-mode:lr-tb;fill:#000000;fill-opacity:1;fill-rule:nonzero;stroke:none;font-family:BitstreamVeraSans;-inkscape-font-specification:BitstreamVeraSans-Roman">4000</tspan>
        </text>
      </g>
      <g
         id="g4357">
        <g
           clip-path="url(#clipPath4361)"
           id="g4359">
          <path
             id="path4365"
             style="fill:none;stroke:#000000;stroke-width:0.5;stroke-linecap:butt;stroke-linejoin:round;stroke-miterlimit:10;stroke-opacity:1;stroke-dasharray:1, 3;stroke-dashoffset:0"
             d="m 62.91,308.09571 491.41125,0"
             inkscape:connector-curvature="0" />
        </g>
      </g>
      <g
         id="g4367">
        <path
           id="path4369"
           style="fill:#000000;fill-opacity:1;fill-rule:nonzero;stroke:#000000;stroke-width:0.5;stroke-linecap:butt;stroke-linejoin:round;stroke-miterlimit:10;stroke-opacity:1;stroke-dasharray:none"
           d="m 62.91,308.09571 4,0"
           inkscape:connector-curvature="0" />
        <path
           id="path4371"
           style="fill:#000000;fill-opacity:1;fill-rule:nonzero;stroke:#000000;stroke-width:0.5;stroke-linecap:butt;stroke-linejoin:round;stroke-miterlimit:10;stroke-opacity:1;stroke-dasharray:none"
           d="m 554.32125,308.09571 -4,0"
           inkscape:connector-curvature="0" />
        <text
           id="text4373"
           transform="matrix(1,0,0,-1,30.06625,304.78321)">
          <tspan
             id="tspan4375"
             sodipodi:role="line"
             y="0"
             x="0 7.632 15.264 22.896"
             style="font-size:12px;font-variant:normal;font-weight:normal;writing-mode:lr-tb;fill:#000000;fill-opacity:1;fill-rule:nonzero;stroke:none;font-family:BitstreamVeraSans;-inkscape-font-specification:BitstreamVeraSans-Roman">5000</tspan>
        </text>
      </g>
      <g
         id="g4377">
        <g
           clip-path="url(#clipPath4381)"
           id="g4379">
          <path
             id="path4385"
             style="fill:none;stroke:#000000;stroke-width:0.5;stroke-linecap:butt;stroke-linejoin:round;stroke-miterlimit:10;stroke-opacity:1;stroke-dasharray:1, 3;stroke-dashoffset:0"
             d="m 62.91,360.64286 491.41125,0"
             inkscape:connector-curvature="0" />
        </g>
      </g>
      <g
         id="g4387">
        <path
           id="path4389"
           style="fill:#000000;fill-opacity:1;fill-rule:nonzero;stroke:#000000;stroke-width:0.5;stroke-linecap:butt;stroke-linejoin:round;stroke-miterlimit:10;stroke-opacity:1;stroke-dasharray:none"
           d="m 62.91,360.64286 4,0"
           inkscape:connector-curvature="0" />
        <path
           id="path4391"
           style="fill:#000000;fill-opacity:1;fill-rule:nonzero;stroke:#000000;stroke-width:0.5;stroke-linecap:butt;stroke-linejoin:round;stroke-miterlimit:10;stroke-opacity:1;stroke-dasharray:none"
           d="m 554.32125,360.64286 -4,0"
           inkscape:connector-curvature="0" />
        <text
           id="text4393"
           transform="matrix(1,0,0,-1,29.988125,357.33036)">
          <tspan
             id="tspan4395"
             sodipodi:role="line"
             y="0"
             x="0 7.632 15.264 22.896"
             style="font-size:12px;font-variant:normal;font-weight:normal;writing-mode:lr-tb;fill:#000000;fill-opacity:1;fill-rule:nonzero;stroke:none;font-family:BitstreamVeraSans;-inkscape-font-specification:BitstreamVeraSans-Roman">6000</tspan>
        </text>
      </g>
      <g
         id="g4397">
        <g
           clip-path="url(#clipPath4401)"
           id="g4399">
          <path
             id="path4405"
             style="fill:none;stroke:#000000;stroke-width:0.5;stroke-linecap:butt;stroke-linejoin:round;stroke-miterlimit:10;stroke-opacity:1;stroke-dasharray:1, 3;stroke-dashoffset:0"
             d="m 62.91,413.19 491.41125,0"
             inkscape:connector-curvature="0" />
        </g>
      </g>
      <g
         id="g4407">
        <path
           id="path4409"
           style="fill:#000000;fill-opacity:1;fill-rule:nonzero;stroke:#000000;stroke-width:0.5;stroke-linecap:butt;stroke-linejoin:round;stroke-miterlimit:10;stroke-opacity:1;stroke-dasharray:none"
           d="m 62.91,413.19 4,0"
           inkscape:connector-curvature="0" />
        <path
           id="path4411"
           style="fill:#000000;fill-opacity:1;fill-rule:nonzero;stroke:#000000;stroke-width:0.5;stroke-linecap:butt;stroke-linejoin:round;stroke-miterlimit:10;stroke-opacity:1;stroke-dasharray:none"
           d="m 554.32125,413.19 -4,0"
           inkscape:connector-curvature="0" />
        <text
           id="text4413"
           transform="matrix(1,0,0,-1,30.12875,409.8775)">
          <tspan
             id="tspan4415"
             sodipodi:role="line"
             y="0"
             x="0 7.632 15.264 22.896"
             style="font-size:12px;font-variant:normal;font-weight:normal;writing-mode:lr-tb;fill:#000000;fill-opacity:1;fill-rule:nonzero;stroke:none;font-family:BitstreamVeraSans;-inkscape-font-specification:BitstreamVeraSans-Roman">7000</tspan>
        </text>
        <text
           id="text4417"
           transform="matrix(0,1,1,0,22.238125,205.63437)">
          <tspan
             id="tspan4419"
             sodipodi:role="line"
             y="0"
             x="0 4.224 11.568 16.5 23.1 30.48 35.16 44.136002"
             style="font-size:12px;font-variant:normal;font-weight:normal;writing-mode:lr-tb;fill:#000000;fill-opacity:1;fill-rule:nonzero;stroke:none;font-family:BitstreamVeraSans;-inkscape-font-specification:BitstreamVeraSans-Roman">force[N]</tspan>
        </text>
        <path
           id="path4421"
           style="fill:none;stroke:#000000;stroke-width:1;stroke-linecap:butt;stroke-linejoin:round;stroke-miterlimit:10;stroke-opacity:1;stroke-dasharray:none"
           d="m 62.91,413.19 491.41125,0"
           inkscape:connector-curvature="0" />
        <path
           id="path4423"
           style="fill:none;stroke:#000000;stroke-width:1;stroke-linecap:butt;stroke-linejoin:round;stroke-miterlimit:10;stroke-opacity:1;stroke-dasharray:none"
           d="m 554.32125,45.36 0,367.83"
           inkscape:connector-curvature="0" />
        <path
           id="path4425"
           style="fill:none;stroke:#000000;stroke-width:1;stroke-linecap:butt;stroke-linejoin:round;stroke-miterlimit:10;stroke-opacity:1;stroke-dasharray:none"
           d="m 62.91,45.36 491.41125,0"
           inkscape:connector-curvature="0" />
        <path
           id="path4427"
           style="fill:none;stroke:#000000;stroke-width:1;stroke-linecap:butt;stroke-linejoin:round;stroke-miterlimit:10;stroke-opacity:1;stroke-dasharray:none"
           d="m 62.91,45.36 0,367.83"
           inkscape:connector-curvature="0" />
        <path
           id="path4429"
           style="fill:#ffffff;fill-opacity:1;fill-rule:nonzero;stroke:#000000;stroke-width:1;stroke-linecap:butt;stroke-linejoin:round;stroke-miterlimit:10;stroke-opacity:1;stroke-dasharray:none"
           d="m 457.31967,338.2575 89.80158,0 0,67.7325 -89.80158,0 z"
           inkscape:connector-curvature="0"
           sodipodi:nodetypes="ccccc" />
        <path
           id="path4431"
           style="fill:none;stroke:#0000ff;stroke-width:1;stroke-linecap:square;stroke-linejoin:round;stroke-miterlimit:10;stroke-opacity:1;stroke-dasharray:none"
           d="m 465.78342,394.62937 20.16,0"
           inkscape:connector-curvature="0" />
        <text
           id="text4433"
           transform="scale(1,-1)"
           x="492.08597"
           y="-389.58936">
          <tspan
             id="tspan4435"
             sodipodi:role="line"
             style="font-size:14.39999962px;font-variant:normal;font-weight:normal;writing-mode:lr-tb;fill:#000000;fill-opacity:1;fill-rule:nonzero;stroke:none;font-family:BitstreamVeraSans;-inkscape-font-specification:BitstreamVeraSans-Roman"
             x="492.08597"
             y="-389.58936">∆t: 0.07</tspan>
        </text>
        <path
           id="path4437"
           style="fill:none;stroke:#008000;stroke-width:1;stroke-linecap:square;stroke-linejoin:round;stroke-miterlimit:10;stroke-opacity:1;stroke-dasharray:none"
           d="m 465.78342,373.49187 20.16,0"
           inkscape:connector-curvature="0" />
        <text
           id="text4439"
           transform="scale(1,-1)"
           x="492.08597"
           y="-368.45187">
          <tspan
             id="tspan4441"
             sodipodi:role="line"
             style="font-size:14.39999962px;font-variant:normal;font-weight:normal;writing-mode:lr-tb;fill:#000000;fill-opacity:1;fill-rule:nonzero;stroke:none;font-family:BitstreamVeraSans;-inkscape-font-specification:BitstreamVeraSans-Roman"
             x="492.08597"
             y="-368.45187">∆t: 0.08</tspan>
        </text>
        <path
           id="path4443"
           style="fill:none;stroke:#ff0000;stroke-width:1;stroke-linecap:square;stroke-linejoin:round;stroke-miterlimit:10;stroke-opacity:1;stroke-dasharray:none"
           d="m 465.78342,352.35437 20.16,0"
           inkscape:connector-curvature="0" />
        <text
           id="text4445"
           transform="scale(1,-1)"
           x="492.08597"
           y="-347.31436">
          <tspan
             id="tspan4447"
             sodipodi:role="line"
             style="font-size:14.39999962px;font-variant:normal;font-weight:normal;writing-mode:lr-tb;fill:#000000;fill-opacity:1;fill-rule:nonzero;stroke:none;font-family:BitstreamVeraSans;-inkscape-font-specification:BitstreamVeraSans-Roman"
             x="492.08597"
             y="-347.31436">∆t: 0.09</tspan>
        </text>
      </g>
    </g>
  </g>
</svg>
