<?xml version="1.0" encoding="UTF-8" standalone="no"?>
<!-- Created with Inkscape (http://www.inkscape.org/) -->

<svg
   xmlns:dc="http://purl.org/dc/elements/1.1/"
   xmlns:cc="http://creativecommons.org/ns#"
   xmlns:rdf="http://www.w3.org/1999/02/22-rdf-syntax-ns#"
   xmlns:svg="http://www.w3.org/2000/svg"
   xmlns="http://www.w3.org/2000/svg"
   xmlns:sodipodi="http://sodipodi.sourceforge.net/DTD/sodipodi-0.dtd"
   xmlns:inkscape="http://www.inkscape.org/namespaces/inkscape"
   width="223.64"
   height="68.739998"
   id="svg2"
   version="1.1"
   inkscape:version="0.48.4 r9939"
   sodipodi:docname="slidingVertexArtifactUnresolvedCollision.svg">
  <defs
     id="defs4">
    <marker
       inkscape:stockid="Arrow1Send"
       orient="auto"
       refY="0"
       refX="0"
       id="Arrow1Send"
       style="overflow:visible">
      <path
         id="path5208"
         d="M 0,0 5,-5 -12.5,0 5,5 0,0 z"
         style="fill-rule:evenodd;stroke:#000000;stroke-width:1pt"
         transform="matrix(-0.2,0,0,-0.2,-1.2,0)"
         inkscape:connector-curvature="0" />
    </marker>
    <marker
       inkscape:stockid="Arrow1Mend"
       orient="auto"
       refY="0"
       refX="0"
       id="Arrow1Mend"
       style="overflow:visible">
      <path
         id="path4008"
         d="M 0,0 5,-5 -12.5,0 5,5 0,0 z"
         style="fill-rule:evenodd;stroke:#000000;stroke-width:1pt"
         transform="matrix(-0.4,0,0,-0.4,-4,0)"
         inkscape:connector-curvature="0" />
    </marker>
    <marker
       inkscape:stockid="Arrow1Lend"
       orient="auto"
       refY="0"
       refX="0"
       id="Arrow1Lend"
       style="overflow:visible">
      <path
         id="path4002"
         d="M 0,0 5,-5 -12.5,0 5,5 0,0 z"
         style="fill-rule:evenodd;stroke:#000000;stroke-width:1pt"
         transform="matrix(-0.8,0,0,-0.8,-10,0)"
         inkscape:connector-curvature="0" />
    </marker>
  </defs>
  <sodipodi:namedview
     id="base"
     pagecolor="#ffffff"
     bordercolor="#666666"
     borderopacity="1.0"
     inkscape:pageopacity="0.0"
     inkscape:pageshadow="2"
     inkscape:zoom="3.959798"
     inkscape:cx="158.77851"
     inkscape:cy="-10.569992"
     inkscape:document-units="px"
     inkscape:current-layer="layer1"
     showgrid="true"
     inkscape:snap-global="false"
     inkscape:window-width="1680"
     inkscape:window-height="987"
     inkscape:window-x="1358"
     inkscape:window-y="-8"
     inkscape:window-maximized="1"
     inkscape:snap-bbox="false"
     fit-margin-top="-2.7755576e-017"
     fit-margin-left="0"
     fit-margin-right="0"
     fit-margin-bottom="0">
    <inkscape:grid
       type="xygrid"
       id="grid2985"
       empspacing="5"
       visible="true"
       enabled="true"
       snapvisiblegridlinesonly="true"
       originx="10.100888px"
       originy="-2.8985583px" />
  </sodipodi:namedview>
  <metadata
     id="metadata7">
    <rdf:RDF>
      <cc:Work
         rdf:about="">
        <dc:format>image/svg+xml</dc:format>
        <dc:type
           rdf:resource="http://purl.org/dc/dcmitype/StillImage" />
        <dc:title />
      </cc:Work>
    </rdf:RDF>
  </metadata>
  <g
     inkscape:label="Layer 1"
     inkscape:groupmode="layer"
     id="layer1"
     transform="translate(10.100888,-980.72364)">
    <path
       style="fill:#e6e6e6;stroke:none"
       d="m 134.38837,999.31738 59.90292,7e-5 -12.03454,51.04745"
       id="path10144-8"
       inkscape:connector-curvature="0"
       sodipodi:nodetypes="ccc" />
    <path
       style="fill:#e6e6e6;stroke:none"
       d="m 62.415004,999.69627 62.302026,-0.50511 -12.28707,50.28994"
       id="path10144-9"
       inkscape:connector-curvature="0"
       sodipodi:nodetypes="ccc" />
    <path
       style="fill:#e6e6e6;stroke:none"
       d="M -9.4438837,999.23277 49.827683,999.1065 37.540609,1049.1439"
       id="path10144"
       inkscape:connector-curvature="0"
       sodipodi:nodetypes="ccc" />
    <path
       style="fill:none;stroke:#000000;stroke-width:1;stroke-linecap:butt;stroke-linejoin:miter;stroke-miterlimit:4;stroke-opacity:1;stroke-dasharray:2, 1;stroke-dashoffset:0"
       d="m 145.40327,999.3269 -11.74682,0.1288"
       id="path3037-7-4-9"
       inkscape:connector-curvature="0"
       sodipodi:nodetypes="cc" />
    <path
       style="fill:none;stroke:#000000;stroke-width:1;stroke-linecap:butt;stroke-linejoin:miter;stroke-miterlimit:4;stroke-opacity:1;stroke-dasharray:2, 1;stroke-dashoffset:0"
       d="m 1.6459364,999.2637 -11.7468244,0.1288"
       id="path3037-7-4-0"
       inkscape:connector-curvature="0"
       sodipodi:nodetypes="cc" />
    <path
       style="fill:none;stroke:#000000;stroke-width:1;stroke-linecap:butt;stroke-linejoin:miter;stroke-miterlimit:4;stroke-opacity:1;stroke-dasharray:2, 1;stroke-dashoffset:0"
       d="M 73.105964,999.2269 61.35914,999.3557"
       id="path3037-7-4"
       inkscape:connector-curvature="0"
       sodipodi:nodetypes="cc" />
    <path
       style="fill:none;stroke:#000000;stroke-width:1;stroke-linecap:butt;stroke-linejoin:miter;stroke-miterlimit:4;stroke-opacity:1;stroke-dasharray:none"
       d="m 50.25,999.3481 -0.25,-0.5 -10,40"
       id="path3978"
       inkscape:connector-curvature="0"
       sodipodi:nodetypes="ccc" />
    <path
       style="fill:none;stroke:#000000;stroke-width:1;stroke-linecap:butt;stroke-linejoin:miter;stroke-miterlimit:4;stroke-opacity:1;stroke-dasharray:none"
       d="m 0.25,999.3481 50,0"
       id="path2987"
       inkscape:connector-curvature="0" />
    <path
       style="fill:none;stroke:#000000;stroke-width:0.69999999;stroke-linecap:butt;stroke-linejoin:miter;stroke-miterlimit:4;stroke-opacity:1;stroke-dasharray:0.7, 0.7;stroke-dashoffset:0;marker-end:url(#Arrow1Mend)"
       d="m 10.25,979.34809 10,20.00001 c 5.20735,9.0025 12,21 30,25 l 15,4"
       id="path2989"
       inkscape:connector-curvature="0"
       sodipodi:nodetypes="cccc" />
    <path
       sodipodi:type="arc"
       style="fill:#0000ff;fill-opacity:1;stroke:none"
       id="path2991"
       sodipodi:cx="47.5"
       sodipodi:cy="49.862183"
       sodipodi:rx="2.5"
       sodipodi:ry="2.5"
       d="m 50,49.862183 c 0,1.380711 -1.119288,2.5 -2.5,2.5 -1.380712,0 -2.5,-1.119289 -2.5,-2.5 0,-1.380712 1.119288,-2.5 2.5,-2.5 1.380712,0 2.5,1.119288 2.5,2.5 z"
       transform="matrix(0.81452095,0,0,0.81452095,-23.5463,948.09203)" />
    <text
       xml:space="preserve"
       style="font-size:14.31450367px;font-style:normal;font-weight:normal;line-height:125%;letter-spacing:0px;word-spacing:0px;fill:#000000;fill-opacity:1;stroke:none;font-family:Sans"
       x="0.56346846"
       y="1038.8641"
       id="text2993"
       sodipodi:linespacing="125%"><tspan
         sodipodi:role="line"
         id="tspan2995"
         x="0.56346846"
         y="1038.8641"
         style="font-size:10px">t<tspan
   style="font-size:7px;baseline-shift:sub"
   id="tspan3019">0</tspan></tspan><tspan
         sodipodi:role="line"
         x="0.56346846"
         y="1051.3641"
         id="tspan2997"
         style="font-size:10px" /></text>
    <path
       style="fill:none;stroke:#000000;stroke-width:1;stroke-linecap:butt;stroke-linejoin:miter;stroke-miterlimit:4;stroke-opacity:1;stroke-dasharray:none"
       d="m 123.25,999.3481 1.75,-0.5 -10,40"
       id="path3919"
       inkscape:connector-curvature="0"
       sodipodi:nodetypes="ccc" />
    <path
       style="fill:none;stroke:#ff0000;stroke-width:1;stroke-linecap:butt;stroke-linejoin:miter;stroke-miterlimit:4;stroke-opacity:1;stroke-dasharray:none"
       d="m 73.25,999.3481 50,0"
       id="path2987-6"
       inkscape:connector-curvature="0" />
    <path
       style="fill:none;stroke:#000000;stroke-width:0.69999999;stroke-linecap:butt;stroke-linejoin:miter;stroke-miterlimit:4;stroke-opacity:1;stroke-dasharray:0.7, 0.7;stroke-dashoffset:0;marker-end:url(#Arrow1Mend)"
       d="m 83.25,979.34809 10,20.00001 c 5.20735,9.0025 12,21 30,25 l 15,4"
       id="path2989-1"
       inkscape:connector-curvature="0"
       sodipodi:nodetypes="cccc" />
    <text
       xml:space="preserve"
       style="font-size:14.31450367px;font-style:normal;font-weight:normal;line-height:125%;letter-spacing:0px;word-spacing:0px;fill:#000000;fill-opacity:1;stroke:none;font-family:Sans"
       x="70"
       y="1038.8481"
       id="text2993-2"
       sodipodi:linespacing="125%"><tspan
         sodipodi:role="line"
         x="70"
         y="1038.8481"
         id="tspan2997-2"
         style="font-size:10px">t<tspan
   style="font-size:7px;baseline-shift:sub"
   id="tspan3021">1</tspan></tspan></text>
    <path
       style="fill:none;stroke:#000000;stroke-width:1;stroke-linecap:butt;stroke-linejoin:miter;stroke-miterlimit:4;stroke-opacity:1;stroke-dasharray:none"
       d="m 195,998.8481 -10,40"
       id="path3981"
       inkscape:connector-curvature="0"
       sodipodi:nodetypes="cc" />
    <path
       style="fill:none;stroke:#ff0000;stroke-width:1;stroke-linecap:butt;stroke-linejoin:miter;stroke-miterlimit:4;stroke-opacity:1;stroke-dasharray:none"
       d="m 146.25,999.3481 50,0"
       id="path2987-2"
       inkscape:connector-curvature="0" />
    <path
       style="fill:none;stroke:#000000;stroke-width:0.69999999;stroke-linecap:butt;stroke-linejoin:miter;stroke-miterlimit:4;stroke-opacity:1;stroke-dasharray:0.7, 0.7;stroke-dashoffset:0;marker-end:url(#Arrow1Mend)"
       d="m 156.25,979.34809 10,20.00001 c 5.20735,9.0025 12,21 30,25 l 15,4"
       id="path2989-16"
       inkscape:connector-curvature="0"
       sodipodi:nodetypes="cccc" />
    <text
       xml:space="preserve"
       style="font-size:14.31450367px;font-style:normal;font-weight:normal;line-height:125%;letter-spacing:0px;word-spacing:0px;fill:#000000;fill-opacity:1;stroke:none;font-family:Sans"
       x="145"
       y="1038.8481"
       id="text2993-5"
       sodipodi:linespacing="125%"><tspan
         sodipodi:role="line"
         x="145"
         y="1038.8481"
         id="tspan2997-6"
         style="font-size:10px;font-weight:normal;-inkscape-font-specification:Sans">t<tspan
   style="font-size:7px;font-weight:normal;baseline-shift:sub;-inkscape-font-specification:Sans"
   id="tspan3023">2</tspan></tspan></text>
    <path
       style="fill:none;stroke:#000000;stroke-width:1px;stroke-linecap:butt;stroke-linejoin:miter;stroke-opacity:1;marker-end:url(#Arrow1Mend)"
       d="m 73.25,999.3481 0,15"
       id="path3983"
       inkscape:connector-curvature="0"
       sodipodi:nodetypes="cc" />
    <path
       style="fill:none;stroke:#000000;stroke-width:1px;stroke-linecap:butt;stroke-linejoin:miter;stroke-opacity:1;marker-start:none;marker-end:url(#Arrow1Mend)"
       d="m 124.76523,999.2218 0,10"
       id="path3985"
       inkscape:connector-curvature="0"
       sodipodi:nodetypes="cc" />
    <path
       style="fill:none;stroke:#000000;stroke-width:1px;stroke-linecap:butt;stroke-linejoin:miter;stroke-opacity:1;marker-end:url(#Arrow1Mend)"
       d="m 146.25,999.3481 0,25"
       id="path3987"
       inkscape:connector-curvature="0"
       sodipodi:nodetypes="cc" />
    <path
       style="fill:none;stroke:#000000;stroke-width:1px;stroke-linecap:butt;stroke-linejoin:miter;stroke-opacity:1;marker-end:url(#Arrow1Mend)"
       d="m 196.25,999.3481 0,15"
       id="path3989"
       inkscape:connector-curvature="0"
       sodipodi:nodetypes="cc" />
    <path
       style="fill:none;stroke:#000000;stroke-width:1px;stroke-linecap:butt;stroke-linejoin:miter;stroke-opacity:1;marker-end:url(#Arrow1Mend)"
       d="m 200.84517,1025.4301 0,-25.0001"
       id="path3991"
       inkscape:connector-curvature="0"
       sodipodi:nodetypes="cc" />
    <path
       style="fill:none;stroke:#000000;stroke-width:1px;stroke-linecap:butt;stroke-linejoin:miter;stroke-opacity:1;marker-end:url(#Arrow1Mend)"
       d="m 96.82143,1004.3481 0,-15.00001"
       id="path3993"
       inkscape:connector-curvature="0" />
    <flowRoot
       xml:space="preserve"
       id="flowRoot5700"
       style="font-size:40px;font-style:normal;font-weight:normal;line-height:125%;letter-spacing:0px;word-spacing:0px;fill:#000000;fill-opacity:1;stroke:none;font-family:Sans"
       transform="translate(0,952.36218)"><flowRegion
         id="flowRegion5702"><rect
           id="rect5704"
           width="412.85715"
           height="231.42857"
           x="-107.14286"
           y="-971.42859" /></flowRegion><flowPara
         id="flowPara5706" /></flowRoot>    <flowRoot
       xml:space="preserve"
       id="flowRoot3029"
       style="font-size:12px;font-style:normal;font-weight:normal;line-height:125%;letter-spacing:0px;word-spacing:0px;fill:#000000;fill-opacity:1;stroke:none;font-family:Sans"
       transform="translate(0,987.36218)"><flowRegion
         id="flowRegion3031"><rect
           id="rect3033"
           width="93.214287"
           height="92.85714"
           x="-30.357143"
           y="-15" /></flowRegion><flowPara
         id="flowPara3035" /></flowRoot>    <path
       sodipodi:type="arc"
       style="fill:#ff0000;fill-opacity:1;stroke:none"
       id="path2991-1"
       sodipodi:cx="47.5"
       sodipodi:cy="49.862183"
       sodipodi:rx="2.5"
       sodipodi:ry="2.5"
       d="m 50,49.862183 c 0,1.380711 -1.119288,2.5 -2.5,2.5 -1.380712,0 -2.5,-1.119289 -2.5,-2.5 0,-1.380712 1.119288,-2.5 2.5,-2.5 1.380712,0 2.5,1.119288 2.5,2.5 z"
       transform="matrix(0.81452095,0,0,0.81452095,58.034899,964.7121)" />
    <path
       sodipodi:type="arc"
       style="fill:#ff0000;fill-opacity:1;stroke:none"
       id="path2991-7"
       sodipodi:cx="47.5"
       sodipodi:cy="49.862183"
       sodipodi:rx="2.5"
       sodipodi:ry="2.5"
       d="m 50,49.862183 c 0,1.380711 -1.119288,2.5 -2.5,2.5 -1.380712,0 -2.5,-1.119289 -2.5,-2.5 0,-1.380712 1.119288,-2.5 2.5,-2.5 1.380712,0 2.5,1.119288 2.5,2.5 z"
       transform="matrix(0.81452095,0,0,0.81452095,162.30966,985.24781)" />
    <path
       sodipodi:type="arc"
       style="fill:#0000ff;fill-opacity:1;stroke:none"
       id="path2991-4"
       sodipodi:cx="47.5"
       sodipodi:cy="49.862183"
       sodipodi:rx="2.5"
       sodipodi:ry="2.5"
       d="m 50,49.862183 c 0,1.380711 -1.119288,2.5 -2.5,2.5 -1.380712,0 -2.5,-1.119289 -2.5,-2.5 0,-1.380712 1.119288,-2.5 2.5,-2.5 1.380712,0 2.5,1.119288 2.5,2.5 z"
       transform="matrix(0.81452095,0,0,0.81452095,11.117225,958.54635)" />
    <path
       sodipodi:type="arc"
       style="fill:#0000ff;fill-opacity:1;stroke:none"
       id="path2991-0"
       sodipodi:cx="47.5"
       sodipodi:cy="49.862183"
       sodipodi:rx="2.5"
       sodipodi:ry="2.5"
       d="m 50,49.862183 c 0,1.380711 -1.119288,2.5 -2.5,2.5 -1.380712,0 -2.5,-1.119289 -2.5,-2.5 0,-1.380712 1.119288,-2.5 2.5,-2.5 1.380712,0 2.5,1.119288 2.5,2.5 z"
       transform="matrix(0.81452095,0,0,0.81452095,-36.666902,959.02999)" />
    <path
       sodipodi:type="arc"
       style="fill:#0000ff;fill-opacity:1;stroke:none"
       id="path2991-9"
       sodipodi:cx="47.5"
       sodipodi:cy="49.862183"
       sodipodi:rx="2.5"
       sodipodi:ry="2.5"
       d="m 50,49.862183 c 0,1.380711 -1.119288,2.5 -2.5,2.5 -1.380712,0 -2.5,-1.119289 -2.5,-2.5 0,-1.380712 1.119288,-2.5 2.5,-2.5 1.380712,0 2.5,1.119288 2.5,2.5 z"
       transform="matrix(0.81452095,0,0,0.81452095,34.296315,958.65119)" />
    <path
       sodipodi:type="arc"
       style="fill:#0000ff;fill-opacity:1;stroke:none"
       id="path2991-48"
       sodipodi:cx="47.5"
       sodipodi:cy="49.862183"
       sodipodi:rx="2.5"
       sodipodi:ry="2.5"
       d="m 50,49.862183 c 0,1.380711 -1.119288,2.5 -2.5,2.5 -1.380712,0 -2.5,-1.119289 -2.5,-2.5 0,-1.380712 1.119288,-2.5 2.5,-2.5 1.380712,0 2.5,1.119288 2.5,2.5 z"
       transform="matrix(0.81452095,0,0,0.81452095,86.167988,958.21831)" />
    <path
       sodipodi:type="arc"
       style="fill:#0000ff;fill-opacity:1;stroke:none"
       id="path2991-8"
       sodipodi:cx="47.5"
       sodipodi:cy="49.862183"
       sodipodi:rx="2.5"
       sodipodi:ry="2.5"
       d="m 50,49.862183 c 0,1.380711 -1.119288,2.5 -2.5,2.5 -1.380712,0 -2.5,-1.119289 -2.5,-2.5 0,-1.380712 1.119288,-2.5 2.5,-2.5 1.380712,0 2.5,1.119288 2.5,2.5 z"
       transform="matrix(0.81452095,0,0,0.81452095,107.0273,958.52492)" />
    <path
       sodipodi:type="arc"
       style="fill:#0000ff;fill-opacity:1;stroke:none"
       id="path2991-2"
       sodipodi:cx="47.5"
       sodipodi:cy="49.862183"
       sodipodi:rx="2.5"
       sodipodi:ry="2.5"
       d="m 50,49.862183 c 0,1.380711 -1.119288,2.5 -2.5,2.5 -1.380712,0 -2.5,-1.119289 -2.5,-2.5 0,-1.380712 1.119288,-2.5 2.5,-2.5 1.380712,0 2.5,1.119288 2.5,2.5 z"
       transform="matrix(0.81452095,0,0,0.81452095,157.28239,958.77745)" />
    <path
       style="fill:none;stroke:#000000;stroke-width:1;stroke-linecap:butt;stroke-linejoin:miter;stroke-miterlimit:4;stroke-opacity:1;stroke-dasharray:2, 1;stroke-dashoffset:0"
       d="m 185,1038.8481 -5,20"
       id="path3037"
       inkscape:connector-curvature="0" />
    <path
       style="fill:none;stroke:#000000;stroke-width:1;stroke-linecap:butt;stroke-linejoin:miter;stroke-miterlimit:4;stroke-opacity:1;stroke-dasharray:2, 1;stroke-dashoffset:0"
       d="m 115,1038.8481 -5,20"
       id="path3037-1"
       inkscape:connector-curvature="0"
       sodipodi:nodetypes="cc" />
    <path
       style="fill:none;stroke:#000000;stroke-width:1;stroke-linecap:butt;stroke-linejoin:miter;stroke-miterlimit:4;stroke-opacity:1;stroke-dasharray:2, 1;stroke-dashoffset:0"
       d="m 40,1038.8481 -4.5,19.5"
       id="path3037-7"
       inkscape:connector-curvature="0"
       sodipodi:nodetypes="cc" />
  </g>
</svg>
